<?xml version="1.0" encoding="UTF-8"?>
<svg version="1.1" xmlns="http://www.w3.org/2000/svg" width="252" height="140">
<path d="M0 0 C83.16 0 166.32 0 252 0 C252 46.2 252 92.4 252 140 C168.84 140 85.68 140 0 140 C0 93.8 0 47.6 0 0 Z " fill="#17437F" transform="translate(0,0)"/>
<path d="M0 0 C1.32 0 2.64 0 4 0 C4 1.98 4 3.96 4 6 C4.78375 5.95875 5.5675 5.9175 6.375 5.875 C9 6 9 6 11 8 C10.625 11.625 10.625 11.625 10 15 C10.66 14.67 11.32 14.34 12 14 C12.25719817 11.97456444 12.50842122 9.94649776 12.65625 7.91015625 C13 6 13 6 15 4 C16.66666667 4 18.33333333 4 20 4 C20.66 3.34 21.32 2.68 22 2 C22 2.66 22 3.32 22 4 C23.32 4.33 24.64 4.66 26 5 C26.33 4.34 26.66 3.68 27 3 C27.99 3.495 27.99 3.495 29 4 C29 4.66 29 5.32 29 6 C29.90363281 5.95359375 30.80726562 5.9071875 31.73828125 5.859375 C32.91777344 5.82328125 34.09726563 5.7871875 35.3125 5.75 C37.07013672 5.68039063 37.07013672 5.68039063 38.86328125 5.609375 C42 6 42 6 43.9296875 7.79296875 C45.53831487 11.11002884 44.83020864 13.48757884 44 17 C43.01 18.485 43.01 18.485 42 20 C42.66 20.33 43.32 20.66 44 21 C43.67 21.66 43.34 22.32 43 23 C43.66 23 44.32 23 45 23 C45.11593506 22.40985107 45.23187012 21.81970215 45.35131836 21.21166992 C45.87802567 18.5365443 46.40772865 15.86202044 46.9375 13.1875 C47.11990234 12.25873047 47.30230469 11.32996094 47.49023438 10.37304688 C47.66748047 9.48037109 47.84472656 8.58769531 48.02734375 7.66796875 C48.27085571 6.43469849 48.27085571 6.43469849 48.51928711 5.17651367 C49 3 49 3 50 0 C51.32 0 52.64 0 54 0 C53.67 1.32 53.34 2.64 53 4 C53.66 4 54.32 4 55 4 C55.495 5.485 55.495 5.485 56 7 C56.99 6.67 57.98 6.34 59 6 C62.4375 5.5625 62.4375 5.5625 66 6 C68.4375 9 68.4375 9 70 12 C70.45375 11.195625 70.9075 10.39125 71.375 9.5625 C73 7 73 7 75 6 C76.87379605 5.92966231 78.75001102 5.9156978 80.625 5.9375 C82.12933594 5.95103516 82.12933594 5.95103516 83.6640625 5.96484375 C84.82035156 5.98224609 84.82035156 5.98224609 86 6 C85.60281628 8.58771209 85.18326138 11.16829819 84.75 13.75 C84.64042969 14.47960937 84.53085938 15.20921875 84.41796875 15.9609375 C83.82327152 19.40392146 83.2729442 21.61692042 81.21875 24.5 C78.49798406 26.33939106 77.00140175 26.42112641 73.75 26.25 C72.85796875 26.21390625 71.9659375 26.1778125 71.046875 26.140625 C70.03367188 26.07101563 70.03367188 26.07101563 69 26 C69 25.34 69 24.68 69 24 C68.34 24 67.68 24 67 24 C68.66488201 27.2122051 68.66488201 27.2122051 71.5625 27.6875 C75.72294502 28.06572227 79.82616913 28.08347662 84 28 C84.33 26.35 84.66 24.7 85 23 C86.98 22.505 86.98 22.505 89 22 C88.67 16.72 88.34 11.44 88 6 C89.32 6 90.64 6 92 6 C92.99 9.96 92.99 9.96 94 14 C95.32 11.36 96.64 8.72 98 6 C99.32 6 100.64 6 102 6 C100.5426449 9.89824543 98.74832128 13.44806622 96.6875 17.0625 C95.82705078 18.59583984 95.82705078 18.59583984 94.94921875 20.16015625 C92.92972111 23.10239028 90.88481267 24.92948901 88 27 C90.40877257 26.88658466 90.40877257 26.88658466 93 26 C94.69882448 23.50240018 94.69882448 23.50240018 96 21 C96.66 21 97.32 21 98 21 C98.061875 20.38125 98.12375 19.7625 98.1875 19.125 C98.455625 18.42375 98.72375 17.7225 99 17 C100.64551962 16.28272222 102.31422289 15.61674772 104 15 C104.66 14.01 105.32 13.02 106 12 C109.625 10.8125 109.625 10.8125 113 10 C112.67 9.67 112.34 9.34 112 9 C112.3125 5.5 112.3125 5.5 113 2 C115.40545638 0.79727181 116.94996953 0.89928528 119.625 0.9375 C120.85089844 0.95103516 120.85089844 0.95103516 122.1015625 0.96484375 C122.72804687 0.97644531 123.35453125 0.98804687 124 1 C123.67 2.32 123.34 3.64 123 5 C121.02 5 119.04 5 117 5 C116.67 5.99 116.34 6.98 116 8 C119.97983682 9.58387703 119.97983682 9.58387703 124.1875 9.8125 C126.09741824 9.11436403 126.09741824 9.11436403 127.3125 7.4375 C129 6 129 6 132.5 5.625 C136 6 136 6 137.9375 7.25 C139 9 139 9 139 13 C139.66 13 140.32 13 141 13 C141.33 10.69 141.66 8.38 142 6 C146.29 6 150.58 6 155 6 C155.99 9.96 155.99 9.96 157 14 C157.43699219 13.16855469 157.43699219 13.16855469 157.8828125 12.3203125 C161.24565757 6.37717122 161.24565757 6.37717122 165 4.5 C170.23880597 3.62686567 170.23880597 3.62686567 173 4 C173.45375 4.515625 173.9075 5.03125 174.375 5.5625 C175.179375 6.2740625 175.179375 6.2740625 176 7 C179.465 6.505 179.465 6.505 183 6 C183 18.87 183 31.74 183 45 C99.84 45 16.68 45 -69 45 C-69 16 -69 16 -66 10 C-64.35 10 -62.7 10 -61 10 C-61 8.02 -61 6.04 -61 4 C-62.32 4 -63.64 4 -65 4 C-65 3.01 -65 2.02 -65 1 C-60.05 1 -55.1 1 -50 1 C-50.33 1.99 -50.66 2.98 -51 4 C-52.98 4 -54.96 4 -57 4 C-56.73323796 5.98491642 -56.73323796 5.98491642 -56 8 C-52.67212881 9.1092904 -51.3006216 9.01557588 -48 8 C-47.34 7.01 -46.68 6.02 -46 5 C-44.12488426 5 -42.24958447 5.01786704 -40.375 5.0625 C-38.04437265 5.27379279 -38.04437265 5.27379279 -37 4 C-38.65 4 -40.3 4 -42 4 C-42 3.01 -42 2.02 -42 1 C-37.05 1 -32.1 1 -27 1 C-27.33 2.32 -27.66 3.64 -28 5 C-28 5.66 -28 6.32 -28 7 C-27.34 6.67 -26.68 6.34 -26 6 C-23.6670134 5.95977609 -21.33293334 5.95679753 -19 6 C-18.505 7.485 -18.505 7.485 -18 9 C-15.98491642 9.73323796 -15.98491642 9.73323796 -14 10 C-13.67 9.01 -13.34 8.02 -13 7 C-10.04335481 5.5216774 -7.25770263 5.93967217 -4 6 C-4 6.99 -4 7.98 -4 9 C-5.98 9.33 -7.96 9.66 -10 10 C-10.33 12.31 -10.66 14.62 -11 17 C-9.35 17 -7.7 17 -6 17 C-5.505 19.97 -5.505 19.97 -5 23 C-4.01 22.67 -3.02 22.34 -2 22 C-2.66 21.67 -3.32 21.34 -4 21 C-3.29843593 13.84404654 -1.69214979 6.98144819 0 0 Z " fill="#17437E" transform="translate(69,95)"/>
<path d="M0 0 C1.010625 0.556875 2.02125 1.11375 3.0625 1.6875 C8.15909224 5.69971091 12.04781377 10.76904942 14 17 C14.92523432 26.15495008 15.07327834 34.55831211 9 42 C8.48050781 42.64453125 7.96101563 43.2890625 7.42578125 43.953125 C2.5221395 49.39399556 -2.8077351 52.48977454 -10.11328125 53.37890625 C-19.72866277 53.72917279 -27.22140842 51.9127751 -34.375 45.3125 C-41.24256132 37.72203749 -42.7583078 30.87256426 -42.44140625 20.66015625 C-41.5456449 13.23247139 -38.54273675 8.1324054 -33.125 3.0625 C-23.76826291 -4.27069136 -10.62109141 -6.32745871 0 0 Z " fill="#19427A" transform="translate(140,29)"/>
<path d="M0 0 C1.010625 0.556875 2.02125 1.11375 3.0625 1.6875 C8.15909224 5.69971091 12.04781377 10.76904942 14 17 C14.92523432 26.15495008 15.07327834 34.55831211 9 42 C8.48050781 42.64453125 7.96101563 43.2890625 7.42578125 43.953125 C2.5221395 49.39399556 -2.8077351 52.48977454 -10.11328125 53.37890625 C-19.72866277 53.72917279 -27.22140842 51.9127751 -34.375 45.3125 C-41.24256132 37.72203749 -42.7583078 30.87256426 -42.44140625 20.66015625 C-41.5456449 13.23247139 -38.54273675 8.1324054 -33.125 3.0625 C-23.76826291 -4.27069136 -10.62109141 -6.32745871 0 0 Z M-18.48339844 1.53320312 C-19.92623335 3.7146445 -21.16487952 5.93154488 -22.375 8.25 C-23.03048828 9.41595703 -23.03048828 9.41595703 -23.69921875 10.60546875 C-25.65350121 14.14495866 -27.00895553 17.03582211 -28 21 C-23.38 21 -18.76 21 -14 21 C-15.421875 23.9765625 -15.421875 23.9765625 -18 27 C-21.1050647 27.76198829 -24.07609639 27.56840975 -27.25 27.375 C-28.09046875 27.34792969 -28.9309375 27.32085937 -29.796875 27.29296875 C-31.86568634 27.22244109 -33.93317393 27.11482367 -36 27 C-34.58363731 24.47899546 -33.16691788 21.95819247 -31.75 19.4375 C-31.35425781 18.73302734 -30.95851563 18.02855469 -30.55078125 17.30273438 C-30.15761719 16.60341797 -29.76445313 15.90410156 -29.359375 15.18359375 C-28.96943359 14.4860498 -28.57949219 13.78850586 -28.17773438 13.06982422 C-27.39595709 11.69587982 -26.59518069 10.33256466 -25.77539062 8.98095703 C-24.79446708 7.35297849 -23.88958946 5.67962963 -23 4 C-23.33 3.34 -23.66 2.68 -24 2 C-31.48704565 6.1594698 -36.10971421 10.66631516 -38.6015625 19.015625 C-40.00552666 26.00791709 -39.05705703 31.37320849 -35.625 37.6328125 C-32.16967681 42.66628811 -27.12598959 47.63866898 -21 49 C-18.32473343 48.69931492 -17.29389615 48.34815616 -15.53613281 46.26586914 C-15.09624023 45.52973389 -14.65634766 44.79359863 -14.203125 44.03515625 C-13.71972656 43.23529297 -13.23632812 42.43542969 -12.73828125 41.61132812 C-12.24714844 40.77021484 -11.75601563 39.92910156 -11.25 39.0625 C-10.74339844 38.22525391 -10.23679688 37.38800781 -9.71484375 36.52539062 C-7.02453315 32.52275641 -7.02453315 32.52275641 -6 28 C-8.31 27.67 -10.62 27.34 -13 27 C-12.34 26.01 -11.68 25.02 -11 24 C-11 23.01 -11 22.02 -11 21 C-4.4 21 2.2 21 9 21 C8.01 22.65 7.02 24.3 6 26 C6 26.66 6 27.32 6 28 C3.36 28 0.72 28 -2 28 C-3.46220279 30.56035921 -4.91985153 33.1231356 -6.375 35.6875 C-6.7875 36.40873047 -7.2 37.12996094 -7.625 37.87304688 C-9.68432272 41.51007651 -11.58289052 45.05233788 -13 49 C-5.35088244 48.46321982 -0.00999763 46.42457873 5.25 40.75 C9.45440593 35.47763 11.59396572 29.90830649 11.28515625 23.07421875 C10.34546377 16.23892139 8.04045255 10.82130244 3 6 C-1.04895007 3.32725836 -5.16475808 0.81316003 -10 0 C-11.12664062 -0.19078125 -12.25328125 -0.3815625 -13.4140625 -0.578125 C-16.93008676 -0.37847948 -16.93008676 -0.37847948 -18.48339844 1.53320312 Z " fill="#E1EFF6" transform="translate(140,29)"/>
<path d="M0 0 C-0.39718372 2.58771209 -0.81673862 5.16829819 -1.25 7.75 C-1.35957031 8.47960937 -1.46914062 9.20921875 -1.58203125 9.9609375 C-2.18403625 13.44622958 -2.71338965 15.6113758 -4.84375 18.5 C-8.32805803 20.92386646 -10.85035888 20.27664274 -15 20 C-15.33 18.68 -15.66 17.36 -16 16 C-13.36 16 -10.72 16 -8 16 C-8 15.34 -8 14.68 -8 14 C-8.78375 14.04125 -9.5675 14.0825 -10.375 14.125 C-13 14 -13 14 -15 12 C-15.40579125 7.80682376 -15.64590514 5.2302955 -13.6875 1.5 C-9.35603598 -0.91756131 -4.85001072 -0.30103515 0 0 Z " fill="#E5EFF4" transform="translate(155,101)"/>
<path d="M0 0 C3.375 0.5625 3.375 0.5625 5.375 2.125 C6.82246494 5.65319578 6.36747239 7.92343456 5.375 11.5625 C3.54476172 13.83199546 2.27156827 14.43644783 -0.59765625 14.83984375 C-2.75 14.9375 -2.75 14.9375 -6.625 14.5625 C-8.97049674 11.04425489 -9.20491403 9.70474306 -8.625 5.5625 C-5.96202876 1.85047949 -4.54596008 0.7054076 0 0 Z " fill="#DBECF5" transform="translate(131.625,100.4375)"/>
<path d="M0 0 C0.928125 0.165 1.85625 0.33 2.8125 0.5 C5.9864565 0.99787553 8.3673385 1.14234884 11.5 0.4375 C14 0 14 0 17 1 C17 1.66 17 2.32 17 3 C15.68 3 14.36 3 13 3 C13.144375 3.73605469 13.28875 4.47210938 13.4375 5.23046875 C13.623125 6.20628906 13.80875 7.18210937 14 8.1875 C14.185625 9.15042969 14.37125 10.11335938 14.5625 11.10546875 C14.96877612 13.7934206 15.07933572 16.28771019 15 19 C13.35 19.33 11.7 19.66 10 20 C9.67 21.65 9.34 23.3 9 25 C7.10688117 25.25060425 5.21022961 25.47460633 3.3125 25.6875 C2.25675781 25.81511719 1.20101562 25.94273438 0.11328125 26.07421875 C-3.49376104 25.98822903 -5.17847367 25.20382668 -8 23 C-8 22.34 -8 21.68 -8 21 C-7.34 21 -6.68 21 -6 21 C-6 21.66 -6 22.32 -6 23 C-4.39482903 22.91266424 -2.79078338 22.80447776 -1.1875 22.6875 C-0.29417969 22.62949219 0.59914062 22.57148437 1.51953125 22.51171875 C4.51789673 21.89315831 5.3027294 21.54590591 7 19 C7.84529982 16.2548959 8.56070834 13.60501536 9.1875 10.8125 C9.36474609 10.06291016 9.54199219 9.31332031 9.72460938 8.54101562 C10.15936263 6.69625181 10.58097276 4.84839934 11 3 C10.24332031 3.17402344 9.48664063 3.34804687 8.70703125 3.52734375 C5.55651733 4.07743348 3.11067599 3.65107172 0 3 C0 2.01 0 1.02 0 0 Z " fill="#1D4272" transform="translate(144,98)"/>
<path d="M0 0 C4.29 0 8.58 0 13 0 C13.66 2.64 14.32 5.28 15 8 C16.65 5.36 18.3 2.72 20 0 C21.32 0.33 22.64 0.66 24 1 C22.79240014 3.18147072 21.56168105 5.34252752 20.3125 7.5 C19.97283203 8.12003906 19.63316406 8.74007812 19.28320312 9.37890625 C18.23828125 11.15625 18.23828125 11.15625 16 14 C14.35 14 12.7 14 11 14 C10.67 10.04 10.34 6.08 10 2 C6.95234447 2.85334283 6.95234447 2.85334283 4 5 C2.87244628 7.94416805 2.37960328 10.87809026 2 14 C0.35 14 -1.3 14 -3 14 C-2.01 9.38 -1.02 4.76 0 0 Z " fill="#E1F1FA" transform="translate(211,101)"/>
<path d="M0 0 C0.33 0.66 0.66 1.32 1 2 C-0.32233324 4.63571162 -1.6973463 7.14897395 -3.1875 9.6875 C-3.58775391 10.38294922 -3.98800781 11.07839844 -4.40039062 11.79492188 C-5.16460953 13.12146718 -5.93204916 14.44616646 -6.70385742 15.76831055 C-8.48559697 18.83609755 -10.23986623 21.91976591 -12 25 C-6.06 25.33 -0.12 25.66 6 26 C6 26.33 6 26.66 6 27 C-4.395 27.495 -4.395 27.495 -15 28 C-15 18.36270464 -13.71874989 11.03953901 -7 4 C-4.72581919 2.39719897 -2.51157683 1.23116511 0 0 Z " fill="#173F73" transform="translate(116,31)"/>
<path d="M0 0 C1.32 0 2.64 0 4 0 C4 1.98 4 3.96 4 6 C4.78375 5.95875 5.5675 5.9175 6.375 5.875 C9 6 9 6 11 8 C10.9765625 10.6015625 10.9765625 10.6015625 10.625 13.625 C10.45871094 15.12933594 10.45871094 15.12933594 10.2890625 16.6640625 C10.14597656 17.82035156 10.14597656 17.82035156 10 19 C8.35 19.33 6.7 19.66 5 20 C5.66 16.37 6.32 12.74 7 9 C5.68 9.33 4.36 9.66 3 10 C1.85706445 12.31315325 1.85706445 12.31315325 1.25 15.0625 C1.00765625 15.98160156 0.7653125 16.90070313 0.515625 17.84765625 C0.34546875 18.55792969 0.1753125 19.26820312 0 20 C-1.32 20 -2.64 20 -4 20 C-2.9413873 13.24289769 -1.77874156 6.60675438 0 0 Z " fill="#E2EFF7" transform="translate(69,95)"/>
<path d="M0 0 C0.66 0.33 1.32 0.66 2 1 C-1.63 7.27 -5.26 13.54 -9 20 C-7.246875 19.505 -5.49375 19.01 -3.6875 18.5 C-0.61483471 17.63242392 1.7997785 17 5 17 C4.67 17.33 4.34 17.66 4 18 C4.66 18.66 5.32 19.32 6 20 C-3.22551253 24.59225513 -3.22551253 24.59225513 -9 24 C-8.34 23.34 -7.68 22.68 -7 22 C-9.31 21.34 -11.62 20.68 -14 20 C-13.44570312 19.03578125 -12.89140625 18.0715625 -12.3203125 17.078125 C-11.58848403 15.80211639 -10.8567164 14.52607288 -10.125 13.25 C-9.57779297 12.29867187 -9.57779297 12.29867187 -9.01953125 11.328125 C-7.5653824 8.78997429 -6.12866099 6.26930076 -4.8671875 3.62890625 C-3.6730456 1.38585593 -2.36352504 0.81246173 0 0 Z " fill="#DDEDF5" transform="translate(136,58)"/>
<path d="M0 0 C2 3 2 3 2 8 C-1.3 8 -4.6 8 -8 8 C-8 8.99 -8 9.98 -8 11 C-5.36 11 -2.72 11 0 11 C0 11.99 0 12.98 0 14 C-1.43655854 14.08131463 -2.8744483 14.13933559 -4.3125 14.1875 C-5.51326172 14.23970703 -5.51326172 14.23970703 -6.73828125 14.29296875 C-9 14 -9 14 -10.76171875 12.66796875 C-12 11 -12 11 -12.5 8.125 C-12 5 -12 5 -9.9375 2.125 C-6.30776494 -0.50076579 -4.38803311 -0.66234462 0 0 Z " fill="#F0F8FA" transform="translate(50,101)"/>
<path d="M0 0 C1.22589844 0.01353516 1.22589844 0.01353516 2.4765625 0.02734375 C3.41628906 0.04474609 3.41628906 0.04474609 4.375 0.0625 C4.045 1.3825 3.715 2.7025 3.375 4.0625 C1.395 4.0625 -0.585 4.0625 -2.625 4.0625 C-2.955 5.0525 -3.285 6.0425 -3.625 7.0625 C-2.820625 7.371875 -2.01625 7.68125 -1.1875 8 C1.375 9.0625 1.375 9.0625 2.375 10.0625 C2.8396439 15.40590485 2.8396439 15.40590485 1.18359375 17.74609375 C-1.25157492 19.51855993 -2.83437209 19.36603096 -5.8125 19.25 C-7.16408203 19.20939453 -7.16408203 19.20939453 -8.54296875 19.16796875 C-9.23003906 19.13316406 -9.91710937 19.09835938 -10.625 19.0625 C-10.625 17.7425 -10.625 16.4225 -10.625 15.0625 C-7.985 15.0625 -5.345 15.0625 -2.625 15.0625 C-2.625 14.0725 -2.625 13.0825 -2.625 12.0625 C-3.470625 11.485 -4.31625 10.9075 -5.1875 10.3125 C-5.991875 9.57 -6.79625 8.8275 -7.625 8.0625 C-7.5625 4.375 -7.5625 4.375 -6.625 1.0625 C-4.21954362 -0.14022819 -2.67503047 -0.03821472 0 0 Z " fill="#E6F4F9" transform="translate(188.625,95.9375)"/>
<path d="M0 0 C1.32 0 2.64 0 4 0 C4.66 2.64 5.32 5.28 6 8 C7.32 5.36 8.64 2.72 10 0 C11.32 0 12.64 0 14 0 C12.53552694 3.94897712 10.68190364 7.48782988 8.5625 11.125 C7.66724609 12.67574219 7.66724609 12.67574219 6.75390625 14.2578125 C5.29250475 16.54267632 4.1148205 18.32529079 2 20 C-0.6875 20.1875 -0.6875 20.1875 -3 20 C-3 19.01 -3 18.02 -3 17 C-1.68 16.67 -0.36 16.34 1 16 C0.67 10.72 0.34 5.44 0 0 Z " fill="#D7E9F2" transform="translate(157,101)"/>
<path d="M0 0 C0.66 0.33 1.32 0.66 2 1 C2 3.31 2 5.62 2 8 C-1.3 8 -4.6 8 -8 8 C-7.01 9.485 -7.01 9.485 -6 11 C-2.91634129 11.2502157 -2.91634129 11.2502157 0 11 C0 11.99 0 12.98 0 14 C-1.45792884 14.05399736 -2.91642712 14.09279177 -4.375 14.125 C-5.18710938 14.14820312 -5.99921875 14.17140625 -6.8359375 14.1953125 C-9 14 -9 14 -11 12 C-11.67039106 5.0726257 -11.67039106 5.0726257 -9.4375 1.5 C-6.14360153 -0.52701444 -3.79877599 -0.35173852 0 0 Z " fill="#EEF9FC" transform="translate(205,101)"/>
<path d="M0 0 C0.33 0.66 0.66 1.32 1 2 C1.99 2.33 2.98 2.66 4 3 C4.66666667 4.33333333 5.33333333 5.66666667 6 7 C6.66 5.02 7.32 3.04 8 1 C8.66 1 9.32 1 10 1 C10.66 2.98 11.32 4.96 12 7 C9.36 7.66 6.72 8.32 4 9 C4 9.66 4 10.32 4 11 C3.21625 11.309375 2.4325 11.61875 1.625 11.9375 C-0.92330128 12.92875038 -0.92330128 12.92875038 -3 14 C-3.33 14.99 -3.66 15.98 -4 17 C-4.66 17.33 -5.32 17.66 -6 18 C-6 18.99 -6 19.98 -6 21 C-7.6875 22.75 -7.6875 22.75 -10 24 C-12.75 23.6875 -12.75 23.6875 -15 23 C-14.27296875 22.4946875 -13.5459375 21.989375 -12.796875 21.46875 C-9.42145983 18.48933325 -7.48016407 15.36711952 -5.25 11.5 C-4.85167969 10.83613281 -4.45335937 10.17226562 -4.04296875 9.48828125 C-2.17891042 6.32254151 -0.77656698 3.61868296 0 0 Z " fill="#204374" transform="translate(171,99)"/>
<path d="M0 0 C0 0.99 0 1.98 0 3 C4.62 3 9.24 3 14 3 C12 8 12 8 11 9 C9.58429877 9.08651611 8.164405 9.10704904 6.74609375 9.09765625 C5.89208984 9.09443359 5.03808594 9.09121094 4.15820312 9.08789062 C3.26037109 9.07951172 2.36253906 9.07113281 1.4375 9.0625 C0.53580078 9.05798828 -0.36589844 9.05347656 -1.29492188 9.04882812 C-3.53001314 9.03700225 -5.76497437 9.0205222 -8 9 C-7.38245741 7.68397477 -6.75571258 6.37226444 -6.125 5.0625 C-5.77695313 4.33160156 -5.42890625 3.60070313 -5.0703125 2.84765625 C-3.67632841 0.44125306 -2.76768491 0 0 0 Z " fill="#F7FAFB" transform="translate(111,48)"/>
<path d="M0 0 C0.99 0.66 1.98 1.32 3 2 C3.36465126 4.62852785 3.52325965 6.93177411 3.5 9.5625 C3.49500488 10.28614746 3.49000977 11.00979492 3.48486328 11.75537109 C3.28615506 17.86873225 1.89923873 22.19467186 -2 27 C-2.50402344 27.6290625 -3.00804687 28.258125 -3.52734375 28.90625 C-5.0625 30.625 -5.0625 30.625 -8 33 C-10.18359375 32.6484375 -10.18359375 32.6484375 -12 32 C-11.45730469 31.3709375 -10.91460937 30.741875 -10.35546875 30.09375 C-2.75251773 20.99760679 -0.58247415 15.55550049 -0.9921875 3.66015625 C-0.99476563 2.78230469 -0.99734375 1.90445313 -1 1 C-0.67 0.67 -0.34 0.34 0 0 Z " fill="#E2F2F9" transform="translate(151,44)"/>
<path d="M0 0 C1.81242052 -0.02687279 3.62495233 -0.04633715 5.4375 -0.0625 C6.44683594 -0.07410156 7.45617187 -0.08570312 8.49609375 -0.09765625 C11 0 11 0 12 1 C12.09886353 2.62252492 12.12971167 4.24947273 12.125 5.875 C12.12757812 6.75929688 12.13015625 7.64359375 12.1328125 8.5546875 C12 11 12 11 11 14 C9.68 14 8.36 14 7 14 C7.33 10.37 7.66 6.74 8 3 C3.92097496 4.47657938 3.92097496 4.47657938 3.171875 7.1640625 C2.96304688 8.38222656 2.96304688 8.38222656 2.75 9.625 C2.60046875 10.44226563 2.4509375 11.25953125 2.296875 12.1015625 C2.19890625 12.72804688 2.1009375 13.35453125 2 14 C0.68 14 -0.64 14 -2 14 C-1.85795259 12.41632253 -1.71119847 10.83306682 -1.5625 9.25 C-1.48128906 8.36828125 -1.40007812 7.4865625 -1.31640625 6.578125 C-1.03761535 4.30649548 -0.61209423 2.20148177 0 0 Z " fill="#DBEDF7" transform="translate(84,101)"/>
<path d="M0 0 C0 4.62 0 9.24 0 14 C-7 14 -7 14 -8.9375 12.875 C-10.55824231 10.01486651 -10.51742613 8.23391331 -10 5 C-6.60375003 0.53635718 -5.80156794 0 0 0 Z " fill="#F3FEFE" transform="translate(252,101)"/>
<path d="M0 0 C4.95 0 9.9 0 15 0 C15 0.99 15 1.98 15 3 C13.02 3 11.04 3 9 3 C8.01 8.28 7.02 13.56 6 19 C4.35 19 2.7 19 1 19 C1.47582968 16.70763814 1.95576385 14.41612791 2.4375 12.125 C2.70433594 10.84882812 2.97117187 9.57265625 3.24609375 8.2578125 C4 5 4 5 5 3 C3.35 3 1.7 3 0 3 C0 2.01 0 1.02 0 0 Z " fill="#EAF5FB" transform="translate(27,96)"/>
<path d="M0 0 C4.95 0 9.9 0 15 0 C14.67 0.99 14.34 1.98 14 3 C12.02 3 10.04 3 8 3 C7.93941406 3.65226562 7.87882813 4.30453125 7.81640625 4.9765625 C7.36480009 9.68716217 6.85804961 14.34201638 6 19 C4.35 19 2.7 19 1 19 C1.99 13.72 2.98 8.44 4 3 C2.68 3 1.36 3 0 3 C0 2.01 0 1.02 0 0 Z " fill="#DCEDF6" transform="translate(4,96)"/>
<path d="M0 0 C0.66 0.33 1.32 0.66 2 1 C2 1.66 2 2.32 2 3 C2.66 3 3.32 3 4 3 C4.33 2.34 4.66 1.68 5 1 C4.51679152 7.2054142 3.66681876 12.99945246 2 19 C2.99 19.33 3.98 19.66 5 20 C3.68 20.33 2.36 20.66 1 21 C0.67 19.02 0.34 17.04 0 15 C-1.65 15 -3.3 15 -5 15 C-5.04241723 12.66705225 -5.04092937 10.33297433 -5 8 C-4 7 -4 7 -0.9375 6.9375 C0.5165625 6.9684375 0.5165625 6.9684375 2 7 C2 6.01 2 5.02 2 4 C1.34 4 0.68 4 0 4 C0 3.34 0 2.68 0 2 C-0.66 1.67 -1.32 1.34 -2 1 C-1.34 0.67 -0.68 0.34 0 0 Z " fill="#1E4172" transform="translate(63,97)"/>
<path d="M0 0 C0.33 0 0.66 0 1 0 C1.66 2.31 2.32 4.62 3 7 C6.62885324 7.15149298 6.62885324 7.15149298 10 6 C9.34 7.65 8.68 9.3 8 11 C2.25 11.125 2.25 11.125 0 10 C0.33 11.32 0.66 12.64 1 14 C0.34 14 -0.32 14 -1 14 C-1 13.34 -1 12.68 -1 12 C-3.31 12 -5.62 12 -8 12 C-8 11.34 -8 10.68 -8 10 C-9.32 9.34 -10.64 8.68 -12 8 C-10.7625 7.79375 -9.525 7.5875 -8.25 7.375 C-4.5416251 6.48236463 -4.07726624 6.09905928 -1.5625 2.875 C-1.046875 1.92625 -0.53125 0.9775 0 0 Z " fill="#284876" transform="translate(139,107)"/>
<path d="M0 0 C2 2 2 2 2.125 4.625 C2.08375 5.40875 2.0425 6.1925 2 7 C1.01 7 0.02 7 -1 7 C-1.33 6.01 -1.66 5.02 -2 4 C-3.65 4.33 -5.3 4.66 -7 5 C-7.2502157 7.91634129 -7.2502157 7.91634129 -7 11 C-6.01 11.66 -5.02 12.32 -4 13 C-6.875 13.625 -6.875 13.625 -10 14 C-12 12 -12 12 -12.375 8.125 C-12.27899431 5.19149292 -12.05255079 4.08758464 -10.5 1.5 C-6.78559093 -0.72864544 -4.29911397 -0.41604329 0 0 Z " fill="#E7F5F9" transform="translate(111,101)"/>
<path d="M0 0 C3.29714793 0.32971479 4.6226839 0.6226839 7 3 C7.66 2.34 8.32 1.68 9 1 C8.875 4.25 8.875 4.25 8 8 C5.1875 10.5 5.1875 10.5 2 12 C-0.375 11.75 -0.375 11.75 -2 11 C-1.34 10.67 -0.68 10.34 0 10 C-0.66 9.34 -1.32 8.68 -2 8 C-2.25 5 -2.25 5 -2 2 C-1.34 1.34 -0.68 0.68 0 0 Z " fill="#C7D4E2" transform="translate(105,104)"/>
<path d="M0 0 C0.66 0.66 1.32 1.32 2 2 C-3.94 2 -9.88 2 -16 2 C-16.33 3.32 -16.66 4.64 -17 6 C-17.66 7.98 -18.32 9.96 -19 12 C-26.92 12 -34.84 12 -43 12 C-42.67 11.34 -42.34 10.68 -42 10 C-35.73 10 -29.46 10 -23 10 C-22.34 8.35 -21.68 6.7 -21 5 C-20.34 4.01 -19.68 3.02 -19 2 C-19.99 1.67 -20.98 1.34 -22 1 C-14.74055787 -0.16151074 -7.3370768 -0.56809387 0 0 Z " fill="#163969" transform="translate(145,48)"/>
<path d="M0 0 C3.09415757 0.42656082 6.05880129 0.92998438 9 2 C10.5625 4.625 10.5625 4.625 11 7 C11.99 7 12.98 7 14 7 C13.69163768 9.12560437 13.37818386 11.25047065 13.0625 13.375 C12.88847656 14.55835937 12.71445313 15.74171875 12.53515625 16.9609375 C12 20 12 20 11 22 C10.34 22 9.68 22 9 22 C8 20 8 20 8 17 C8.350625 16.401875 8.70125 15.80375 9.0625 15.1875 C10.35562611 12.17020575 9.76560422 10.13201726 9 7 C7.94021067 5.71387324 7.94021067 5.71387324 5.49609375 5.90234375 C4.48675781 5.91394531 3.47742188 5.92554687 2.4375 5.9375 C1.42558594 5.94652344 0.41367188 5.95554687 -0.62890625 5.96484375 C-1.41136719 5.97644531 -2.19382812 5.98804687 -3 6 C-2.67 5.01 -2.34 4.02 -2 3 C-1.34 2.67 -0.68 2.34 0 2 C0 1.34 0 0.68 0 0 Z " fill="#183D6B" transform="translate(103,96)"/>
<path d="M0 0 C0 0.99 0 1.98 0 3 C-1.98 3.33 -3.96 3.66 -6 4 C-6.33 6.31 -6.66 8.62 -7 11 C-5.35 11 -3.7 11 -2 11 C-2 11.99 -2 12.98 -2 14 C-8.40504648 14.48339973 -8.40504648 14.48339973 -11 12.375 C-12.37347453 9.11299798 -12.04932713 7.35784682 -11 4 C-7.93346368 -0.48186077 -5.20796136 -0.40061241 0 0 Z " fill="#DBEEF7" transform="translate(65,101)"/>
<path d="M0 0 C1.98 0 3.96 0 6 0 C6 0.66 6 1.32 6 2 C6.66 2 7.32 2 8 2 C8 6.71906188 6.71245796 8.27037031 4 12 C3.67 11.34 3.34 10.68 3 10 C2.01 10.33 1.02 10.66 0 11 C-2.6875 9.5625 -2.6875 9.5625 -5 8 C-4.67 6.68 -4.34 5.36 -4 4 C-2.02 4 -0.04 4 2 4 C2.33 3.01 2.66 2.02 3 1 C2.01 0.67 1.02 0.34 0 0 Z " fill="#203F70" transform="translate(190,95)"/>
<path d="M0 0 C1.49080078 0.02707031 1.49080078 0.02707031 3.01171875 0.0546875 C3.77097656 0.07789062 4.53023437 0.10109375 5.3125 0.125 C4.6525 3.095 3.9925 6.065 3.3125 9.125 C1.9925 9.455 0.6725 9.785 -0.6875 10.125 C-0.6875 8.145 -0.6875 6.165 -0.6875 4.125 C-2.0075 4.125 -3.3275 4.125 -4.6875 4.125 C-5.3475 6.105 -6.0075 8.085 -6.6875 10.125 C-7.6775 9.795 -8.6675 9.465 -9.6875 9.125 C-9.375 5.75 -9.375 5.75 -8.6875 2.125 C-5.26655758 -0.15562828 -4.00562778 -0.09425007 0 0 Z " fill="#E7F0F9" transform="translate(149.6875,100.875)"/>
<path d="M0 0 C1.32 0 2.64 0 4 0 C2.68 6.6 1.36 13.2 0 20 C-1.32 20 -2.64 20 -4 20 C-3.42978625 13.04339229 -1.98697306 6.68572695 0 0 Z " fill="#F8F9FE" transform="translate(119,95)"/>
<path d="M0 0 C0.33 0 0.66 0 1 0 C1 1.65 1 3.3 1 5 C2.65 5.33 4.3 5.66 6 6 C5.01 6.495 5.01 6.495 4 7 C4 7.99 4 8.98 4 10 C0.04 11.98 0.04 11.98 -4 14 C-3.34 14.33 -2.68 14.66 -2 15 C-2 16.65 -2 18.3 -2 20 C-3.98 19.01 -5.96 18.02 -8 17 C-7.38073236 13.87582957 -6.32503069 11.703681 -4.5625 9.0625 C-2.66227375 6.12428889 -1.14380113 3.32742147 0 0 Z " fill="#1D4275" transform="translate(154,59)"/>
<path d="M0 0 C1.32 0 2.64 0 4 0 C3.85892253 1.45880109 3.71197585 2.91703551 3.5625 4.375 C3.48128906 5.18710938 3.40007812 5.99921875 3.31640625 6.8359375 C3 9 3 9 2 11 C4.64 10.67 7.28 10.34 10 10 C10.33 10.66 10.66 11.32 11 12 C8.36 12 5.72 12 3 12 C2.67 12.99 2.34 13.98 2 15 C-0.00243931 13.19134514 -1.69035862 11.59864 -2.9375 9.1875 C-3.03747742 5.68829047 -1.50604287 3.13256917 0 0 Z " fill="#234879" transform="translate(72,104)"/>
<path d="M0 0 C0.98248524 4.0527516 1.08159574 7.83861737 1 12 C0.01 12 -0.98 12 -2 12 C-2.33 11.34 -2.66 10.68 -3 10 C-3.99 10 -4.98 10 -6 10 C-6.66 9.34 -7.32 8.68 -8 8 C-7.9375 5.5625 -7.9375 5.5625 -7 3 C-2.96551724 0 -2.96551724 0 0 0 Z " fill="#21487E" transform="translate(221,103)"/>
<path d="M0 0 C0.33 0.66 0.66 1.32 1 2 C-0.21484375 4.6015625 -0.21484375 4.6015625 -1.9375 7.625 C-2.50339844 8.62789062 -3.06929687 9.63078125 -3.65234375 10.6640625 C-4.09707031 11.43492188 -4.54179688 12.20578125 -5 13 C-5.66 12.67 -6.32 12.34 -7 12 C-7 11.34 -7 10.68 -7 10 C-7.66 10 -8.32 10 -9 10 C-9.33 11.32 -9.66 12.64 -10 14 C-10.99 14 -11.98 14 -13 14 C-10.50450628 6.72147665 -6.61548517 3.43496345 0 0 Z " fill="#25436B" transform="translate(116,31)"/>
<path d="M0 0 C0.144375 0.61875 0.28875 1.2375 0.4375 1.875 C0.93152225 4.03258322 0.93152225 4.03258322 2 6 C0.22613338 9.79869828 -1.92282259 13.35434168 -4 17 C0.62 17 5.24 17 10 17 C9.67 17.66 9.34 18.32 9 19 C2.07 18.505 2.07 18.505 -5 18 C-5 17.01 -5 16.02 -5 15 C-5.99 15.33 -6.98 15.66 -8 16 C-6.57250019 12.20950293 -4.83763458 8.72877544 -2.875 5.1875 C-2.33617188 4.21167969 -1.79734375 3.23585937 -1.2421875 2.23046875 C-0.83226563 1.49441406 -0.42234375 0.75835937 0 0 Z " fill="#D6E5F1" transform="translate(116,33)"/>
<path d="M0 0 C0.66 0 1.32 0 2 0 C3.125 4.75 3.125 4.75 2 7 C1.69656053 10.48955396 1.60529918 12.37505704 3.5 15.375 C3.995 15.91125 4.49 16.4475 5 17 C4.01 17.33 3.02 17.66 2 18 C2 17.34 2 16.68 2 16 C1.34 16.66 0.68 17.32 0 18 C-3.125 18.125 -3.125 18.125 -6 18 C-6 17.34 -6 16.68 -6 16 C-5.01 16 -4.02 16 -3 16 C-2.86722656 15.01257813 -2.73445313 14.02515625 -2.59765625 13.0078125 C-2.42105469 11.72648437 -2.24445313 10.44515625 -2.0625 9.125 C-1.88847656 7.84882812 -1.71445313 6.57265625 -1.53515625 5.2578125 C-1 2 -1 2 0 0 Z " fill="#1D4270" transform="translate(122,99)"/>
<path d="M0 0 C0.99 0.33 1.98 0.66 3 1 C2.01 1.495 2.01 1.495 1 2 C1.33 2.99 1.66 3.98 2 5 C1.34 5.66 0.68 6.32 0 7 C-0.33 7.66 -0.66 8.32 -1 9 C-1.66 9 -2.32 9 -3 9 C-3 8.01 -3 7.02 -3 6 C-4.32 6 -5.64 6 -7 6 C-7 6.66 -7 7.32 -7 8 C-9.475 7.01 -9.475 7.01 -12 6 C-11.34 4.35 -10.68 2.7 -10 1 C-7.98177083 1.03255208 -5.96354167 1.06510417 -3.9453125 1.09765625 C-1.91814596 1.12649242 -1.91814596 1.12649242 0 0 Z " fill="#133D77" transform="translate(245,89)"/>
<path d="M0 0 C0.99 0.33 1.98 0.66 3 1 C3.13277344 1.86882813 3.26554687 2.73765625 3.40234375 3.6328125 C3.57894531 4.78523438 3.75554687 5.93765625 3.9375 7.125 C4.11152344 8.26195312 4.28554687 9.39890625 4.46484375 10.5703125 C4.95589266 13.71732669 5.47018719 16.85930783 6 20 C5.01 20 4.02 20 3 20 C-0.65111665 13.45841601 -0.29887594 7.36120371 0 0 Z " fill="#EEF8FD" transform="translate(98,48)"/>
<path d="M0 0 C1.32 0 2.64 0 4 0 C3.34 3.3 2.68 6.6 2 10 C3.65 10 5.3 10 7 10 C7.33 9.01 7.66 8.02 8 7 C7.67 8.65 7.34 10.3 7 12 C4.8125 12.8125 4.8125 12.8125 2 13 C-0.8125 10.5625 -0.8125 10.5625 -3 8 C-1.125 2.25 -1.125 2.25 0 0 Z " fill="#193C69" transform="translate(3,105)"/>
<path d="M0 0 C0.66 0.33 1.32 0.66 2 1 C1.979375 1.9075 1.95875 2.815 1.9375 3.75 C1.9889755 6.42672588 2.2215017 8.46988052 3 11 C2.01 10.67 1.02 10.34 0 10 C0 10.66 0 11.32 0 12 C-1.32 12.33 -2.64 12.66 -4 13 C-4 12.34 -4 11.68 -4 11 C-3.34 11 -2.68 11 -2 11 C-2 10.01 -2 9.02 -2 8 C-3.423125 8.2784375 -3.423125 8.2784375 -4.875 8.5625 C-8 9 -8 9 -10 8 C-10 7.01 -10 6.02 -10 5 C-6.7 5 -3.4 5 0 5 C0 3.35 0 1.7 0 0 Z " fill="#1B3968" transform="translate(52,104)"/>
<path d="M0 0 C-0.33 0.66 -0.66 1.32 -1 2 C-2.32 2 -3.64 2 -5 2 C-5.99 6.95 -6.98 11.9 -8 17 C-8.99 16.67 -9.98 16.34 -11 16 C-12.05263755 12.84208736 -12.30577317 10.74119417 -11.0234375 7.6328125 C-7.90710641 1.92865092 -6.75047527 -0.17764409 0 0 Z " fill="#1D3B67" transform="translate(242,99)"/>
<path d="M0 0 C0.33 0.66 0.66 1.32 1 2 C2.32 2 3.64 2 5 2 C5 3.98 5 5.96 5 8 C4.34 8 3.68 8 3 8 C2.67 8.66 2.34 9.32 2 10 C2 9.34 2 8.68 2 8 C1.34 8 0.68 8 0 8 C-0.66 9.98 -1.32 11.96 -2 14 C-2.33 14 -2.66 14 -3 14 C-3 10.37 -3 6.74 -3 3 C-2.01 3 -1.02 3 0 3 C0 2.01 0 1.02 0 0 Z " fill="#4F6C97" transform="translate(3,97)"/>
<path d="M0 0 C1.32 0 2.64 0 4 0 C3.69024532 1.77131561 3.37709575 3.54203778 3.0625 5.3125 C2.88847656 6.29863281 2.71445313 7.28476563 2.53515625 8.30078125 C2 11 2 11 1 14 C-0.32 14 -1.64 14 -3 14 C-2.69147815 12.041036 -2.3780582 10.08284287 -2.0625 8.125 C-1.88847656 7.03445312 -1.71445313 5.94390625 -1.53515625 4.8203125 C-1 2 -1 2 0 0 Z " fill="#D3E9F3" transform="translate(237,101)"/>
<path d="M0 0 C0.33 0.66 0.66 1.32 1 2 C3.02463255 2.65213292 3.02463255 2.65213292 5 3 C5.33 2.34 5.66 1.68 6 1 C6 2.32 6 3.64 6 5 C4.7625 5.020625 3.525 5.04125 2.25 5.0625 C1.55390625 5.07410156 0.8578125 5.08570312 0.140625 5.09765625 C-2.03292403 4.99849799 -3.91306537 4.59693851 -6 4 C-6.04898438 4.59167969 -6.09796875 5.18335937 -6.1484375 5.79296875 C-6.56456867 10.19104472 -7.04965595 13.96928897 -9 18 C-9.66 18 -10.32 18 -11 18 C-11 16.35 -11 14.7 -11 13 C-10.34 12.67 -9.68 12.34 -9 12 C-8.74280183 9.97456444 -8.49157878 7.94649776 -8.34375 5.91015625 C-8 4 -8 4 -6 2 C-3.375 1.875 -3.375 1.875 -1 2 C-0.67 1.34 -0.34 0.68 0 0 Z " fill="#183A65" transform="translate(90,97)"/>
<path d="M0 0 C1.65 0.99 3.3 1.98 5 3 C4.68657358 6.44769066 4.32465015 8.55940337 2.25 11.375 C-0.41011015 13.29619066 -1.79064469 13.35659503 -5 13 C-5 12.01 -5 11.02 -5 10 C-3.68 9.67 -2.36 9.34 -1 9 C-0.67 6.03 -0.34 3.06 0 0 Z " fill="#DAF2FA" transform="translate(159,108)"/>
<path d="M0 0 C0.33 1.32 0.66 2.64 1 4 C1.66 4 2.32 4 3 4 C2.67 5.98 2.34 7.96 2 10 C0.3739713 9.93999894 -1.25101549 9.8512115 -2.875 9.75 C-4.23238281 9.68039063 -4.23238281 9.68039063 -5.6171875 9.609375 C-6.40351563 9.40828125 -7.18984375 9.2071875 -8 9 C-8.66 7.68 -9.32 6.36 -10 5 C-6.7 5 -3.4 5 0 5 C0 3.35 0 1.7 0 0 Z " fill="#4B6687" transform="translate(207,104)"/>
<path d="M0 0 C0.721875 0.103125 1.44375 0.20625 2.1875 0.3125 C2.1875 0.9725 2.1875 1.6325 2.1875 2.3125 C1.3625 2.704375 0.5375 3.09625 -0.3125 3.5 C-1.55 4.3971875 -1.55 4.3971875 -2.8125 5.3125 C-3.22975678 8.93849422 -3.22975678 8.93849422 -2.8125 12.3125 C-4.4625 11.9825 -6.1125 11.6525 -7.8125 11.3125 C-8.28433746 7.25469787 -8.14579645 5.75054676 -5.625 2.4375 C-2.8125 0.3125 -2.8125 0.3125 0 0 Z " fill="#E5F6FC" transform="translate(130.8125,100.6875)"/>
<path d="M0 0 C0 3 0 3 -1 6 C-7.625 6.125 -7.625 6.125 -11 5 C-8.45499142 -0.63537615 -5.97208347 -0.11059414 0 0 Z " fill="#A9BAC9" transform="translate(50,101)"/>
<path d="M0 0 C0.66 0.33 1.32 0.66 2 1 C1.67 1.33 1.34 1.66 1 2 C1.66 2.66 2.32 3.32 3 4 C-6.22551253 8.59225513 -6.22551253 8.59225513 -12 8 C-11.34 7.34 -10.68 6.68 -10 6 C-10.99 5.67 -11.98 5.34 -13 5 C-12.67 4.34 -12.34 3.68 -12 3 C-10.00439094 2.73828078 -8.00727827 2.48259039 -6.00390625 2.2890625 C-3.70897906 1.95802037 -2.02758609 1.09177713 0 0 Z " fill="#DCE9F4" transform="translate(139,74)"/>
<path d="M0 0 C0.66 0 1.32 0 2 0 C2.99 3.3 3.98 6.6 5 10 C-1.75 13 -1.75 13 -4 13 C-2.125 8.125 -2.125 8.125 -1 7 C-0.63239269 4.67182036 -0.29758419 2.3381615 0 0 Z " fill="#284678" transform="translate(191,105)"/>
<path d="M0 0 C2.375 0.1875 2.375 0.1875 5 1 C5.2784375 1.7940625 5.556875 2.588125 5.84375 3.40625 C6.77547668 6.18285718 6.77547668 6.18285718 9.3828125 7.36328125 C10.28773437 7.67652344 11.19265625 7.98976563 12.125 8.3125 C13.03507812 8.63863281 13.94515625 8.96476562 14.8828125 9.30078125 C15.58148438 9.53152344 16.28015625 9.76226562 17 10 C17 10.66 17 11.32 17 12 C10.24976498 11.66248825 6.07125597 7.77448292 1.26171875 3.4296875 C0 2 0 2 0 0 Z " fill="#224069" transform="translate(105,66)"/>
<path d="M0 0 C3 2 3 2 3.8125 3.9375 C4 6 4 6 2 9 C2 8.01 2 7.02 2 6 C1.34 6 0.68 6 0 6 C0 7.32 0 8.64 0 10 C-1.32 10 -2.64 10 -4 10 C-4 8.35 -4 6.7 -4 5 C-3.01 5 -2.02 5 -1 5 C-1 4.34 -1 3.68 -1 3 C-3.31 3 -5.62 3 -8 3 C-8 2.67 -8 2.34 -8 2 C-5.36 2 -2.72 2 0 2 C0 1.34 0 0.68 0 0 Z " fill="#264F82" transform="translate(146,55)"/>
<path d="M0 0 C0.99 0.33 1.98 0.66 3 1 C3.33 1 3.66 1 4 1 C4.33 2.32 4.66 3.64 5 5 C4.01 5.33 3.02 5.66 2 6 C2 6.66 2 7.32 2 8 C-1.10046087 9.03348696 -2.05610218 9.17755913 -5 8 C-5.33 7.01 -5.66 6.02 -6 5 C-5 4 -5 4 -2.4375 3.9375 C-1.2309375 3.9684375 -1.2309375 3.9684375 0 4 C0 2.68 0 1.36 0 0 Z " fill="#193D74" transform="translate(213,111)"/>
<path d="M0 0 C0.99 0.33 1.98 0.66 3 1 C2.91621094 1.66386719 2.83242187 2.32773438 2.74609375 3.01171875 C1.94574958 9.54720848 1.94574958 9.54720848 3 16 C0.525 15.01 0.525 15.01 -2 14 C-2.21192221 8.80790596 -1.5912689 4.873261 0 0 Z " fill="#1E3B6B" transform="translate(241,101)"/>
<path d="M0 0 C2.625 0.375 2.625 0.375 5 1 C4.125 6.875 4.125 6.875 3 8 C1.33382885 8.04063832 -0.33388095 8.042721 -2 8 C-2.125 5.125 -2.125 5.125 -2 2 C-1.34 1.34 -0.68 0.68 0 0 Z " fill="#294A6F" transform="translate(129,104)"/>
<path d="M0 0 C0.66 0.33 1.32 0.66 2 1 C1 3 1 3 -1 6 C-4.125 6.1875 -4.125 6.1875 -7 6 C-7.33 5.34 -7.66 4.68 -8 4 C-8.66 3.67 -9.32 3.34 -10 3 C-7.29533098 -0.81835627 -4.38726992 -0.31907418 0 0 Z " fill="#D1E8F2" transform="translate(205,101)"/>
<path d="M0 0 C0.928125 0.165 1.85625 0.33 2.8125 0.5 C5.9864565 0.99787553 8.3673385 1.14234884 11.5 0.4375 C14 0 14 0 17 1 C17 1.66 17 2.32 17 3 C15.68 3 14.36 3 13 3 C13 4.65 13 6.3 13 8 C12.34 7.67 11.68 7.34 11 7 C11 5.68 11 4.36 11 3 C9.948125 3.2784375 9.948125 3.2784375 8.875 3.5625 C5.66111302 4.05156976 3.16439664 3.66231558 0 3 C0 2.01 0 1.02 0 0 Z " fill="#1A3964" transform="translate(144,98)"/>
<path d="M0 0 C5.40292394 -0.11026375 10.69841807 -0.19015105 16 1 C16.66 1.99 17.32 2.98 18 4 C12.39 4 6.78 4 1 4 C0.67 2.68 0.34 1.36 0 0 Z " fill="#2D508E" transform="translate(112,22)"/>
<path d="M0 0 C1.32 0 2.64 0 4 0 C4 0.99 4 1.98 4 3 C6.475 3.99 6.475 3.99 9 5 C9 4.34 9 3.68 9 3 C10.65 3.33 12.3 3.66 14 4 C14 4.66 14 5.32 14 6 C8.66572638 7.66149506 8.66572638 7.66149506 6 8 C4.1875 6.6875 4.1875 6.6875 3 5 C2.01 4.67 1.02 4.34 0 4 C0 2.68 0 1.36 0 0 Z " fill="#5B7B9E" transform="translate(238,95)"/>
<path d="M0 0 C1.32 0 2.64 0 4 0 C4 2.64 4 5.28 4 8 C2.33388095 8.042721 0.66617115 8.04063832 -1 8 C-2 7 -2 7 -2.1875 4.5625 C-2 2 -2 2 0 0 Z " fill="#123F79" transform="translate(248,104)"/>
<path d="M0 0 C1.32 0 2.64 0 4 0 C4.04241723 2.33294775 4.04092937 4.66702567 4 7 C3 8 3 8 0.4375 8.0625 C-0.366875 8.041875 -1.17125 8.02125 -2 8 C-2.125 5.125 -2.125 5.125 -2 2 C-1.34 1.34 -0.68 0.68 0 0 Z " fill="#1D3E69" transform="translate(105,104)"/>
<path d="M0 0 C0.99 0.33 1.98 0.66 3 1 C2.67 1.66 2.34 2.32 2 3 C2.66 3 3.32 3 4 3 C4 2.34 4 1.68 4 1 C4.99 1 5.98 1 7 1 C7.33 2.98 7.66 4.96 8 7 C5.03 6.505 5.03 6.505 2 6 C1.67 6.99 1.34 7.98 1 9 C0.01 8.01 -0.98 7.02 -2 6 C-1.67 5.38125 -1.34 4.7625 -1 4.125 C0.14193235 2.08981656 0.14193235 2.08981656 0 0 Z " fill="#1F497C" transform="translate(117,89)"/>
<path d="M0 0 C1.67542976 0.28604898 3.34385343 0.61781233 5 1 C4.67 2.98 4.34 4.96 4 7 C2.35 7.33 0.7 7.66 -1 8 C-1.04241723 5.66705225 -1.04092937 3.33297433 -1 1 C-0.67 0.67 -0.34 0.34 0 0 Z " fill="#254874" transform="translate(145,104)"/>
<path d="M0 0 C1.32 0.33 2.64 0.66 4 1 C1.03 5.95 1.03 5.95 -2 11 C-3.32 10.34 -4.64 9.68 -6 9 C-4.02 6.03 -2.04 3.06 0 0 Z " fill="#D4E6EF" transform="translate(231,101)"/>
<path d="M0 0 C2.3828125 -0.29296875 2.3828125 -0.29296875 5.125 -0.1875 C6.03507813 -0.16042969 6.94515625 -0.13335937 7.8828125 -0.10546875 C8.58148438 -0.07066406 9.28015625 -0.03585938 10 0 C9.67 1.32 9.34 2.64 9 4 C7.54364629 4.22174933 6.08477044 4.42698698 4.625 4.625 C3.81289062 4.74101563 3.00078125 4.85703125 2.1640625 4.9765625 C1.44992188 4.98429687 0.73578125 4.99203125 0 5 C-0.66 4.34 -1.32 3.68 -2 3 C-1.34 2.01 -0.68 1.02 0 0 Z " fill="#FDFDFB" transform="translate(135,52)"/>
<path d="M0 0 C1.53690745 2.41040161 2.09752136 3.50082285 1.5390625 6.359375 C1.23742187 7.14828125 0.93578125 7.9371875 0.625 8.75 C0.18027344 9.94882813 0.18027344 9.94882813 -0.2734375 11.171875 C-0.63308594 12.07679687 -0.63308594 12.07679687 -1 13 C-1.33 13 -1.66 13 -2 13 C-2.37125 11.1128125 -2.37125 11.1128125 -2.75 9.1875 C-3.48837994 6.16442273 -3.79382006 5.1940517 -6.125 3 C-6.74375 2.67 -7.3625 2.34 -8 2 C-5.3260876 1.10869587 -2.76276177 0.52268466 0 0 Z " fill="#1D3D66" transform="translate(140,98)"/>
<path d="M0 0 C1.4540625 0.0309375 1.4540625 0.0309375 2.9375 0.0625 C1.9338661 2.79968336 1.20845212 3.89691815 -1.3125 5.4375 C-4.81387361 6.23326673 -6.79880632 5.42869736 -10.0625 4.0625 C-10.0625 3.7325 -10.0625 3.4025 -10.0625 3.0625 C-8.6084375 2.5984375 -8.6084375 2.5984375 -7.125 2.125 C-1.0625 0.02168367 -1.0625 0.02168367 0 0 Z " fill="#224172" transform="translate(141.0625,21.9375)"/>
<path d="M0 0 C0.33 0.66 0.66 1.32 1 2 C1.66 2 2.32 2 3 2 C3 3.32 3 4.64 3 6 C8.94 6.33 14.88 6.66 21 7 C21 7.33 21 7.66 21 8 C10.605 8.495 10.605 8.495 0 9 C0 6.03 0 3.06 0 0 Z " fill="#576E92" transform="translate(101,50)"/>
<path d="M0 0 C1.875 0.3125 1.875 0.3125 4 1 C6.29013653 4.4352048 6.17842973 5.985331 6 10 C5.01 10.33 4.02 10.66 3 11 C3.33 8.69 3.66 6.38 4 4 C2.68 4 1.36 4 0 4 C-0.33 4.66 -0.66 5.32 -1 6 C-0.67 4.02 -0.34 2.04 0 0 Z " fill="#204478" transform="translate(69,91)"/>
<path d="M0 0 C0.66 0.33 1.32 0.66 2 1 C2 1.66 2 2.32 2 3 C1.34 3 0.68 3 0 3 C0.33 3.99 0.66 4.98 1 6 C7.93 6.495 7.93 6.495 15 7 C15 7.33 15 7.66 15 8 C8.73 8 2.46 8 -4 8 C-2.68 5.36 -1.36 2.72 0 0 Z " fill="#E6F6FA" transform="translate(107,49)"/>
<path d="M0 0 C0.66 0 1.32 0 2 0 C0.125 3.875 0.125 3.875 -1 5 C-3.67058851 5.14115161 -6.32432238 5.04247107 -9 5 C-9.33 3.68 -9.66 2.36 -10 1 C-9.36191406 1.01160156 -8.72382813 1.02320312 -8.06640625 1.03515625 C-7.24011719 1.04417969 -6.41382813 1.05320312 -5.5625 1.0625 C-4.32693359 1.07990234 -4.32693359 1.07990234 -3.06640625 1.09765625 C-1.00836062 1.23267348 -1.00836062 1.23267348 0 0 Z " fill="#D8F0F9" transform="translate(149,116)"/>
<path d="M0 0 C1.65 0 3.3 0 5 0 C4.34 2.31 3.68 4.62 3 7 C2.34 6.67 1.68 6.34 1 6 C0.34 8.31 -0.32 10.62 -1 13 C-1.66 13 -2.32 13 -3 13 C-2.01 8.71 -1.02 4.42 0 0 Z " fill="#2A4975" transform="translate(36,99)"/>
<path d="M0 0 C0.66 0.33 1.32 0.66 2 1 C2 1.33 2 1.66 2 2 C3.32 2 4.64 2 6 2 C5.67 2.99 5.34 3.98 5 5 C3.35 4.67 1.7 4.34 0 4 C-0.33 6.31 -0.66 8.62 -1 11 C-1.66 11 -2.32 11 -3 11 C-3.33 9.02 -3.66 7.04 -4 5 C-3.01 5 -2.02 5 -1 5 C-1.33 3.68 -1.66 2.36 -2 1 C-1.34 0.67 -0.68 0.34 0 0 Z " fill="#153868" transform="translate(211,97)"/>
<path d="M0 0 C0.598125 0.33 1.19625 0.66 1.8125 1 C4.05386471 2.20787988 4.05386471 2.20787988 7 2 C7.66 5.3 8.32 8.6 9 12 C8.34 12 7.68 12 7 12 C5.5625 10.35546875 5.5625 10.35546875 4 8.1875 C3.484375 7.47980469 2.96875 6.77210937 2.4375 6.04296875 C1.26681246 4.37919271 0.12846526 2.69269789 -1 1 C-0.67 0.67 -0.34 0.34 0 0 Z " fill="#1F3B73" transform="translate(144,29)"/>
<path d="M0 0 C0.33 0 0.66 0 1 0 C1 2.97 1 5.94 1 9 C1.66 7.02 2.32 5.04 3 3 C4.27351308 5.54702616 3.80191925 6.4282945 3.0625 9.125 C2.86785156 9.84945312 2.67320313 10.57390625 2.47265625 11.3203125 C2.23869141 12.15175781 2.23869141 12.15175781 2 13 C0.68 13 -0.64 13 -2 13 C-1.85769192 11.58297487 -1.71099254 10.1663904 -1.5625 8.75 C-1.48128906 7.96109375 -1.40007812 7.1721875 -1.31640625 6.359375 C-1.02365007 4.17635361 -0.57935581 2.1226818 0 0 Z " fill="#CBDEEE" transform="translate(117,102)"/>
<path d="M0 0 C0.33 0 0.66 0 1 0 C1 1.65 1 3.3 1 5 C4.63 5.33 8.26 5.66 12 6 C12 6.99 12 7.98 12 9 C10.56344146 9.08131463 9.1255517 9.13933559 7.6875 9.1875 C6.48673828 9.23970703 6.48673828 9.23970703 5.26171875 9.29296875 C3 9 3 9 1.21875 7.6875 C-0.59219053 5.18004388 -0.20005332 3.00079974 0 0 Z " fill="#D8E8F3" transform="translate(38,106)"/>
<path d="M0 0 C2.31 0 4.62 0 7 0 C6.67 0.66 6.34 1.32 6 2 C6.33 2.33 6.66 2.66 7 3 C7 3.66 7 4.32 7 5 C5.72125 5.309375 4.4425 5.61875 3.125 5.9375 C0.89898325 6.47605244 -0.94739999 6.9737 -3 8 C-2.37240135 5.07120629 -1.41377341 2.63904371 0 0 Z " fill="#153B6B" transform="translate(42,96)"/>
<path d="M0 0 C0.66 0 1.32 0 2 0 C2.33 3.63 2.66 7.26 3 11 C1.35 11 -0.3 11 -2 11 C-1.34 7.37 -0.68 3.74 0 0 Z " fill="#D7EBF3" transform="translate(30,104)"/>
<path d="M0 0 C1.32 0 2.64 0 4 0 C3.47731534 2.76276177 2.89130413 5.3260876 2 8 C0.68 7.67 -0.64 7.34 -2 7 C-1.125 1.125 -1.125 1.125 0 0 Z " fill="#1F3D70" transform="translate(72,104)"/>
<path d="M0 0 C0.33 0.66 0.66 1.32 1 2 C3.01669827 3.13350534 3.01669827 3.13350534 5 4 C4.34 4.66 3.68 5.32 3 6 C2.35232207 8.57061311 2.35232207 8.57061311 2 11 C1.34 11 0.68 11 0 11 C-1.49297212 8.01405576 -1.11755228 5.29146376 -1 2 C-0.67 1.34 -0.34 0.68 0 0 Z " fill="#2B4D7A" transform="translate(97,99)"/>
<path d="M0 0 C0.66 0.33 1.32 0.66 2 1 C-1.34237013 4.0598026 -3.64964091 4.38397379 -8.125 4.3125 C-9.17945312 4.30863281 -10.23390625 4.30476563 -11.3203125 4.30078125 C-14 4 -14 4 -16 2 C-14.64455078 1.90912109 -14.64455078 1.90912109 -13.26171875 1.81640625 C-11.49248047 1.69072266 -11.49248047 1.69072266 -9.6875 1.5625 C-7.92986328 1.44068359 -7.92986328 1.44068359 -6.13671875 1.31640625 C-2.97409042 1.1132629 -2.97409042 1.1132629 0 0 Z " fill="#1B3B62" transform="translate(136,80)"/>
<path d="M0 0 C0.556875 0.144375 1.11375 0.28875 1.6875 0.4375 C6.29336311 1.59483624 6.29336311 1.59483624 11 2 C11 2.99 11 3.98 11 5 C9.54207116 5.05399736 8.08357288 5.09279177 6.625 5.125 C5.81289062 5.14820312 5.00078125 5.17140625 4.1640625 5.1953125 C2 5 2 5 0 3 C0 2.01 0 1.02 0 0 Z " fill="#E4F3FA" transform="translate(194,110)"/>
<path d="M0 0 C0.99 0 1.98 0 3 0 C3.25 6.625 3.25 6.625 1 10 C0.67 8.68 0.34 7.36 0 6 C-0.66 6 -1.32 6 -2 6 C-1.125 1.125 -1.125 1.125 0 0 Z " fill="#193B60" transform="translate(89,104)"/>
<path d="M0 0 C2.64 0 5.28 0 8 0 C6.8141763 3.37503669 5.72426311 5.64722731 3 8 C2.34 6.35 1.68 4.7 1 3 C1.33 2.67 1.66 2.34 2 2 C1.34 1.34 0.68 0.68 0 0 Z " fill="#37587D" transform="translate(126,57)"/>
<path d="M0 0 C2.3125 0.1875 2.3125 0.1875 5 1 C6.875 3.4375 6.875 3.4375 8 6 C7.67 6.66 7.34 7.32 7 8 C6.01 8.33 5.02 8.66 4 9 C2.47551369 6.0173094 1.06059933 3.181798 0 0 Z " fill="#DFEFF5" transform="translate(145,37)"/>
<path d="M0 0 C1.4606285 2.64738916 2 3.89448334 2 7 C2.66 7 3.32 7 4 7 C4.33 6.34 4.66 5.68 5 5 C6.65 5.33 8.3 5.66 10 6 C10 6.99 10 7.98 10 9 C3.6217765 9.36103152 3.6217765 9.36103152 1.0625 7.875 C-0.44484863 5.214973 -0.19986253 2.99793795 0 0 Z " fill="#D0E1F0" transform="translate(242,106)"/>
<path d="M0 0 C0.33 0 0.66 0 1 0 C1.061875 0.78375 1.12375 1.5675 1.1875 2.375 C1.455625 3.24125 1.72375 4.1075 2 5 C4.47636012 6.37466625 4.47636012 6.37466625 7 7 C6.01 7.66 5.02 8.32 4 9 C4 8.34 4 7.68 4 7 C3.34 7.66 2.68 8.32 2 9 C-1.125 9.125 -1.125 9.125 -4 9 C-4 8.34 -4 7.68 -4 7 C-3.01 7 -2.02 7 -1 7 C-0.67 4.69 -0.34 2.38 0 0 Z " fill="#173968" transform="translate(120,108)"/>
<path d="M0 0 C1.32 0 2.64 0 4 0 C3.67 2.64 3.34 5.28 3 8 C1.68 8 0.36 8 -1 8 C-1.93065133 5.39417629 -2.14917407 4.35801776 -1.0625 1.75 C-0.711875 1.1725 -0.36125 0.595 0 0 Z " fill="#1F4079" transform="translate(3,105)"/>
<path d="M0 0 C2 0 2 0 3.625 1 C5.82559052 4.20085893 5.18792122 7.17893517 5 11 C4.01 11.33 3.02 11.66 2 12 C2.0928125 10.329375 2.0928125 10.329375 2.1875 8.625 C2.125625 7.42875 2.06375 6.2325 2 5 C1.01 4.34 0.02 3.68 -1 3 C-0.67 2.01 -0.34 1.02 0 0 Z " fill="#1A4272" transform="translate(77,98)"/>
<path d="M0 0 C0.99 0.66 1.98 1.32 3 2 C0.03 6.95 0.03 6.95 -3 12 C-3.66 10.68 -4.32 9.36 -5 8 C-3.582879 5.165758 -1.76905838 2.62505437 0 0 Z " fill="#29456E" transform="translate(166,98)"/>
<path d="M0 0 C0.66 0 1.32 0 2 0 C2.0825 0.61875 2.165 1.2375 2.25 1.875 C3.23825442 4.67505419 4.40359985 4.74113932 7 6 C8.25 8.125 8.25 8.125 9 10 C7.02 9.34 5.04 8.68 3 8 C3.33 7.34 3.66 6.68 4 6 C1.03 5.505 1.03 5.505 -2 5 C-1.34 3.35 -0.68 1.7 0 0 Z " fill="#103E73" transform="translate(170,96)"/>
<path d="M0 0 C3.3 0 6.6 0 10 0 C10 0.99 10 1.98 10 3 C8.02 3 6.04 3 4 3 C4 3.66 4 4.32 4 5 C3.34 5 2.68 5 2 5 C2 3.68 2 2.36 2 1 C1.34 0.67 0.68 0.34 0 0 Z " fill="#DEE9F7" transform="translate(32,96)"/>
<path d="M0 0 C1.98 0 3.96 0 6 0 C6 0.66 6 1.32 6 2 C5.34 2 4.68 2 4 2 C4 4.31 4 6.62 4 9 C2.35 8.67 0.7 8.34 -1 8 C-0.67 7.01 -0.34 6.02 0 5 C0.66 4.67 1.32 4.34 2 4 C2.33 3.01 2.66 2.02 3 1 C2.01 0.67 1.02 0.34 0 0 Z " fill="#0F3E72" transform="translate(190,95)"/>
<path d="M0 0 C1.32 0.33 2.64 0.66 4 1 C3.67 2.65 3.34 4.3 3 6 C2.67 5.34 2.34 4.68 2 4 C1.34 4 0.68 4 0 4 C-0.33 5.32 -0.66 6.64 -1 8 C-1.99 8 -2.98 8 -4 8 C-2.87548273 5.0280615 -1.77706209 2.66559313 0 0 Z " fill="#214579" transform="translate(107,37)"/>
<path d="M0 0 C2.0625 0.4375 2.0625 0.4375 4 1 C3.67 1.66 3.34 2.32 3 3 C4.32 3.33 5.64 3.66 7 4 C7 4.66 7 5.32 7 6 C4.69 5.67 2.38 5.34 0 5 C-0.5625 3.0625 -0.5625 3.0625 -1 1 C-0.67 0.67 -0.34 0.34 0 0 Z " fill="#154072" transform="translate(203,96)"/>
<path d="M0 0 C0.33 0 0.66 0 1 0 C1.33 1.65 1.66 3.3 2 5 C2.66 5 3.32 5 4 5 C3.67 6.98 3.34 8.96 3 11 C1.68 11 0.36 11 -1 11 C-0.67 7.37 -0.34 3.74 0 0 Z " fill="#C7DCEA" transform="translate(92,104)"/>
<path d="M0 0 C0.33 0 0.66 0 1 0 C1 1.65 1 3.3 1 5 C1.99 5.33 2.98 5.66 4 6 C4 6.66 4 7.32 4 8 C1.625 8.125 1.625 8.125 -1 8 C-1.66 7.34 -2.32 6.68 -3 6 C-3 5.01 -3 4.02 -3 3 C-2.34 3 -1.68 3 -1 3 C-0.67 2.01 -0.34 1.02 0 0 Z " fill="#D6E7EF" transform="translate(143,107)"/>
<path d="M0 0 C2.475 0.495 2.475 0.495 5 1 C5.5625 2.9375 5.5625 2.9375 6 5 C5 6 5 6 2.4375 6.0625 C1.2309375 6.0315625 1.2309375 6.0315625 0 6 C0.185625 5.38125 0.37125 4.7625 0.5625 4.125 C1.23686176 1.95839822 1.23686176 1.95839822 0 0 Z " fill="#153A69" transform="translate(181,106)"/>
<path d="M0 0 C0 1.65 0 3.3 0 5 C-2.31 5 -4.62 5 -7 5 C-6.1875 3.0625 -6.1875 3.0625 -5 1 C-2 0 -2 0 0 0 Z " fill="#394D71" transform="translate(221,103)"/>
<path d="M0 0 C0.66 0.33 1.32 0.66 2 1 C2 1.66 2 2.32 2 3 C2.66 3 3.32 3 4 3 C4 4.98 4 6.96 4 9 C3.34 9 2.68 9 2 9 C2 7.68 2 6.36 2 5 C1.34 5 0.68 5 0 5 C-0.33 5.66 -0.66 6.32 -1 7 C-1.04254356 5.00045254 -1.04080783 2.99958364 -1 1 C-0.67 0.67 -0.34 0.34 0 0 Z " fill="#1E4574" transform="translate(12,103)"/>
<path d="M0 0 C3.3 0 6.6 0 10 0 C8.375 2.0625 8.375 2.0625 6 4 C2.75 3.75 2.75 3.75 0 3 C0 2.01 0 1.02 0 0 Z " fill="#405D85" transform="translate(42,109)"/>
<path d="M0 0 C0.33 0.66 0.66 1.32 1 2 C1.66 2 2.32 2 3 2 C3.28875 2.61875 3.5775 3.2375 3.875 3.875 C4.93720042 6.13325765 4.93720042 6.13325765 7 8 C4.36 7.67 1.72 7.34 -1 7 C-0.67 4.69 -0.34 2.38 0 0 Z " fill="#183A69" transform="translate(96,108)"/>
<path d="M0 0 C0.66 0.99 1.32 1.98 2 3 C2.99 3.33 3.98 3.66 5 4 C5.6875 6.0625 5.6875 6.0625 6 8 C3.03 7.505 3.03 7.505 0 7 C0 6.34 0 5.68 0 5 C-0.66 4.67 -1.32 4.34 -2 4 C-1.34 2.68 -0.68 1.36 0 0 Z " fill="#143D71" transform="translate(26,112)"/>
<path d="M0 0 C2.31 0.33 4.62 0.66 7 1 C7 1.99 7 2.98 7 4 C4.69 4 2.38 4 0 4 C0 2.68 0 1.36 0 0 Z " fill="#DFEEF5" transform="translate(56,111)"/>
<path d="M0 0 C1.485 0.99 1.485 0.99 3 2 C3.29296875 4.6015625 3.29296875 4.6015625 3.1875 7.625 C3.16042969 8.62789062 3.13335937 9.63078125 3.10546875 10.6640625 C3.07066406 11.43492188 3.03585938 12.20578125 3 13 C0.41073669 10.41073669 0.62601957 8.97294721 0.375 5.375 C0.30023438 4.37210938 0.22546875 3.36921875 0.1484375 2.3359375 C0.09945312 1.56507812 0.05046875 0.79421875 0 0 Z " fill="#103F69" transform="translate(154,46)"/>
<path d="M0 0 C2.97 0 5.94 0 9 0 C9 0.66 9 1.32 9 2 C5.78548731 3.60725635 2.56387464 3.05748185 -1 3 C-0.67 2.01 -0.34 1.02 0 0 Z " fill="#F4FDFF" transform="translate(122,26)"/>
<path d="M0 0 C1.32 0.66 2.64 1.32 4 2 C3.67 3.65 3.34 5.3 3 7 C1.68 7 0.36 7 -1 7 C-0.67 4.69 -0.34 2.38 0 0 Z " fill="#CBE4ED" transform="translate(75,108)"/>
<path d="M0 0 C1.98 0 3.96 0 6 0 C6 0.33 6 0.66 6 1 C4.35 1 2.7 1 1 1 C3.31 1.66 5.62 2.32 8 3 C6 5 6 5 3 6 C2.01 5.34 1.02 4.68 0 4 C0 2.68 0 1.36 0 0 Z " fill="#315388" transform="translate(12,99)"/>
<path d="M0 0 C0.66 0.33 1.32 0.66 2 1 C2 1.66 2 2.32 2 3 C2.66 3 3.32 3 4 3 C4.33 2.34 4.66 1.68 5 1 C4.67 3.64 4.34 6.28 4 9 C3.34 8.34 2.68 7.68 2 7 C2 6.01 2 5.02 2 4 C1.34 4 0.68 4 0 4 C0 3.34 0 2.68 0 2 C-0.66 1.67 -1.32 1.34 -2 1 C-1.34 0.67 -0.68 0.34 0 0 Z " fill="#183D6A" transform="translate(63,97)"/>
<path d="M0 0 C4.29 0 8.58 0 13 0 C12.34 1.65 11.68 3.3 11 5 C10.01 5 9.02 5 8 5 C8 4.34 8 3.68 8 3 C8.66 3 9.32 3 10 3 C10 2.34 10 1.68 10 1 C6.7 1 3.4 1 0 1 C0 0.67 0 0.34 0 0 Z " fill="#CEE5F8" transform="translate(136,50)"/>
<path d="M0 0 C0 0.66 0 1.32 0 2 C-0.680625 2.5878125 -0.680625 2.5878125 -1.375 3.1875 C-3.71848404 5.80138604 -4.17605418 8.64083629 -5 12 C-5.33 12 -5.66 12 -6 12 C-6.48979592 4.65306122 -6.48979592 4.65306122 -4.125 1.5 C-2 0 -2 0 0 0 Z " fill="#D4EAF5" transform="translate(105,101)"/>
<path d="M0 0 C0.66 0.66 1.32 1.32 2 2 C1.34 3.98 0.68 5.96 0 8 C-0.99 7.67 -1.98 7.34 -3 7 C-3.1875 4.625 -3.1875 4.625 -3 2 C-2.01 1.34 -1.02 0.68 0 0 Z " fill="#F3F9FB" transform="translate(143,103)"/>
<path d="M0 0 C0.7425 0.0825 1.485 0.165 2.25 0.25 C2.25 1.24 2.25 2.23 2.25 3.25 C-2.205 3.745 -2.205 3.745 -6.75 4.25 C-3.42692308 0.31153846 -3.42692308 0.31153846 0 0 Z " fill="#DEECF8" transform="translate(249.75,100.75)"/>
<path d="M0 0 C-1.2748209 2.84383123 -2.45137078 5.13754018 -5 7 C-7.1015625 6.57421875 -7.1015625 6.57421875 -9 6 C-7.8803014 4.99406757 -6.7540588 3.9954151 -5.625 3 C-4.68527344 2.1646875 -4.68527344 2.1646875 -3.7265625 1.3125 C-2 0 -2 0 0 0 Z " fill="#EDFAFF" transform="translate(148,70)"/>
<path d="M0 0 C0.33 0 0.66 0 1 0 C1.33 2.31 1.66 4.62 2 7 C2.66 6.67 3.32 6.34 4 6 C4.33 7.65 4.66 9.3 5 11 C4.01 11.33 3.02 11.66 2 12 C-0.13586678 8.79619983 -0.23132175 7.98060033 -0.125 4.3125 C-0.10695312 3.50425781 -0.08890625 2.69601563 -0.0703125 1.86328125 C-0.04710937 1.24839844 -0.02390625 0.63351563 0 0 Z " fill="#2D5B88" transform="translate(154,50)"/>
<path d="M0 0 C0.33 0 0.66 0 1 0 C1 1.65 1 3.3 1 5 C-0.98 5 -2.96 5 -5 5 C-5 5.66 -5 6.32 -5 7 C-4.34 7.33 -3.68 7.66 -3 8 C-4.32 8.33 -5.64 8.66 -7 9 C-6.67 7.35 -6.34 5.7 -6 4 C-5.38125 3.896875 -4.7625 3.79375 -4.125 3.6875 C-1.63473516 3.12474627 -1.63473516 3.12474627 0 0 Z " fill="#224479" transform="translate(229,111)"/>
<path d="M0 0 C2.5 1.25 2.5 1.25 5 3 C5 4.32 5 5.64 5 7 C3.35 6.67 1.7 6.34 0 6 C0 4.02 0 2.04 0 0 Z " fill="#F2F9FB" transform="translate(159,108)"/>
<path d="M0 0 C0.66 0.33 1.32 0.66 2 1 C2 2.32 2 3.64 2 5 C0.02 5.99 0.02 5.99 -2 7 C-2.33 5.35 -2.66 3.7 -3 2 C-2.01 1.34 -1.02 0.68 0 0 Z " fill="#D1DEE9" transform="translate(56,106)"/>
<path d="M0 0 C0.33 0.66 0.66 1.32 1 2 C-5.625 3.125 -5.625 3.125 -9 2 C-5.5647952 -0.29013653 -4.014669 -0.17842973 0 0 Z " fill="#D2E7F5" transform="translate(150,101)"/>
<path d="M0 0 C2.97 0 5.94 0 9 0 C9 0.66 9 1.32 9 2 C7.02 2 5.04 2 3 2 C3 2.66 3 3.32 3 4 C2.34 4 1.68 4 1 4 C0.67 2.68 0.34 1.36 0 0 Z " fill="#F3F9FD" transform="translate(9,97)"/>
<path d="M0 0 C3.79303725 1.00193437 6.71536341 1.81024227 10 4 C5.545 4.495 5.545 4.495 1 5 C1.66 4.34 2.32 3.68 3 3 C2.01 2.67 1.02 2.34 0 2 C0 1.34 0 0.68 0 0 Z " fill="#C7DCEA" transform="translate(126,77)"/>
<path d="M0 0 C0.33 0 0.66 0 1 0 C1.05399736 1.45792884 1.09279177 2.91642712 1.125 4.375 C1.14820313 5.18710937 1.17140625 5.99921875 1.1953125 6.8359375 C1 9 1 9 -1 11 C-1 10.34 -1 9.68 -1 9 C-1.99 9.33 -2.98 9.66 -4 10 C-3.67 8.35 -3.34 6.7 -3 5 C-2.34 5.33 -1.68 5.66 -1 6 C-0.67 4.02 -0.34 2.04 0 0 Z " fill="#DAE9F4" transform="translate(153,53)"/>
<path d="M0 0 C0.99 0.33 1.98 0.66 3 1 C2.34 2.65 1.68 4.3 1 6 C-0.32 6 -1.64 6 -3 6 C-2.01 4.02 -1.02 2.04 0 0 Z " fill="#254873" transform="translate(121,32)"/>
<path d="M0 0 C0.66 0.33 1.32 0.66 2 1 C1.67 1.66 1.34 2.32 1 3 C1.66 3.33 2.32 3.66 3 4 C1.02 4.99 -0.96 5.98 -3 7 C-3.1875 4.625 -3.1875 4.625 -3 2 C-2.01 1.34 -1.02 0.68 0 0 Z " fill="#D2E5F1" transform="translate(113,28)"/>
<path d="M0 0 C-2.6860286 1.79068573 -4.6626589 2.66055791 -7.6875 3.625 C-8.89986328 4.01558594 -8.89986328 4.01558594 -10.13671875 4.4140625 C-10.75160156 4.60742188 -11.36648437 4.80078125 -12 5 C-12.33 4.34 -12.66 3.68 -13 3 C-4.57142857 -0.42857143 -4.57142857 -0.42857143 0 0 Z " fill="#1B3C63" transform="translate(121,25)"/>
<path d="M0 0 C-0.33 0.66 -0.66 1.32 -1 2 C-3.5625 2.625 -3.5625 2.625 -6 3 C-6 2.34 -6 1.68 -6 1 C-7.32 0.34 -8.64 -0.32 -10 -1 C-5.92224809 -1.9267618 -3.57818963 -2.33958553 0 0 Z " fill="#30568E" transform="translate(137,116)"/>
<path d="M0 0 C2.97 0 5.94 0 9 0 C8.67 0.66 8.34 1.32 8 2 C5.67843403 2.40729228 3.3431213 2.74438677 1 3 C0.67 2.01 0.34 1.02 0 0 Z " fill="#254271" transform="translate(198,110)"/>
<path d="M0 0 C0.66 0 1.32 0 2 0 C2.33 0.99 2.66 1.98 3 3 C2.360625 3.226875 1.72125 3.45375 1.0625 3.6875 C-1.27193661 4.85250896 -1.27193661 4.85250896 -1.75 7.625 C-1.8325 8.40875 -1.915 9.1925 -2 10 C-2.66 9.01 -3.32 8.02 -4 7 C-3.125 4.3125 -3.125 4.3125 -2 2 C-1.34 2 -0.68 2 0 2 C0 1.34 0 0.68 0 0 Z " fill="#DBEFFA" transform="translate(105,101)"/>
<path d="M0 0 C2.64 0.33 5.28 0.66 8 1 C6.875 2.5625 6.875 2.5625 5 4 C1.8125 3.6875 1.8125 3.6875 -1 3 C-0.67 2.01 -0.34 1.02 0 0 Z " fill="#F2FEFF" transform="translate(122,78)"/>
<path d="M0 0 C0.66 0 1.32 0 2 0 C2.33 1.32 2.66 2.64 3 4 C1.68 4.99 0.36 5.98 -1 7 C-1.66 6.34 -2.32 5.68 -3 5 C-1.625 2.5 -1.625 2.5 0 0 Z " fill="#E7F1FA" transform="translate(125,72)"/>
<path d="M0 0 C0.66 1.32 1.32 2.64 2 4 C0.68 5.65 -0.64 7.3 -2 9 C-2.6875 7.3125 -2.6875 7.3125 -3 5 C-1.5625 2.25 -1.5625 2.25 0 0 Z " fill="#1A3867" transform="translate(136,61)"/>
<path d="M0 0 C0.144375 0.61875 0.28875 1.2375 0.4375 1.875 C0.93152225 4.03258322 0.93152225 4.03258322 2 6 C1.01 7.32 0.02 8.64 -1 10 C-1.33 9.67 -1.66 9.34 -2 9 C-1.30232558 2.60465116 -1.30232558 2.60465116 0 0 Z " fill="#DBECF6" transform="translate(116,33)"/>
<path d="M0 0 C0.33 0.99 0.66 1.98 1 3 C1.99 3.33 2.98 3.66 4 4 C3.01 4.495 3.01 4.495 2 5 C2 5.66 2 6.32 2 7 C1.34 7 0.68 7 0 7 C-0.33 6.34 -0.66 5.68 -1 5 C-1.99 4.67 -2.98 4.34 -4 4 C-2.68 3.67 -1.36 3.34 0 3 C0 2.01 0 1.02 0 0 Z " fill="#23487D" transform="translate(238,112)"/>
<path d="M0 0 C4.455 0.99 4.455 0.99 9 2 C7.68 2.33 6.36 2.66 5 3 C5 3.66 5 4.32 5 5 C4.01 5 3.02 5 2 5 C2 4.34 2 3.68 2 3 C1.34 3 0.68 3 0 3 C0 2.01 0 1.02 0 0 Z " fill="#375785" transform="translate(38,113)"/>
<path d="M0 0 C0.99 0.33 1.98 0.66 3 1 C2.34 3.64 1.68 6.28 1 9 C0.34 8.34 -0.32 7.68 -1 7 C-0.625 3.375 -0.625 3.375 0 0 Z " fill="#0C3665" transform="translate(241,101)"/>
<path d="M0 0 C1.32 0 2.64 0 4 0 C3.67 1.98 3.34 3.96 3 6 C1.68 5.67 0.36 5.34 -1 5 C-0.67 3.35 -0.34 1.7 0 0 Z " fill="#DDF0F9" transform="translate(119,95)"/>
<path d="M0 0 C0 0.66 0 1.32 0 2 C-0.66 2 -1.32 2 -2 2 C-2 2.66 -2 3.32 -2 4 C-3.32 4 -4.64 4 -6 4 C-6 3.34 -6 2.68 -6 2 C-6.66 1.67 -7.32 1.34 -8 1 C-2.25 -1.125 -2.25 -1.125 0 0 Z " fill="#163B6E" transform="translate(226,97)"/>
<path d="M0 0 C1.32 0 2.64 0 4 0 C3.67 1.98 3.34 3.96 3 6 C2.01 6 1.02 6 0 6 C0 4.02 0 2.04 0 0 Z " fill="#E8F5FD" transform="translate(69,95)"/>
<path d="M0 0 C2.31 0 4.62 0 7 0 C6.67 0.99 6.34 1.98 6 3 C4.35 3.33 2.7 3.66 1 4 C0.67 2.68 0.34 1.36 0 0 Z " fill="#0E4177" transform="translate(231,116)"/>
<path d="M0 0 C0.66 0 1.32 0 2 0 C2 2.31 2 4.62 2 7 C0.68 6.67 -0.64 6.34 -2 6 C-1.34 4.02 -0.68 2.04 0 0 Z " fill="#E6F7FD" transform="translate(210,108)"/>
<path d="M0 0 C1.32 0.33 2.64 0.66 4 1 C3.67 4.3 3.34 7.6 3 11 C2.67 11 2.34 11 2 11 C2 8.69 2 6.38 2 4 C1.34 4 0.68 4 0 4 C0 2.68 0 1.36 0 0 Z " fill="#D3E2F1" transform="translate(210,104)"/>
<path d="M0 0 C2.97 0 5.94 0 9 0 C8.67 1.32 8.34 2.64 8 4 C7.34 4 6.68 4 6 4 C6 3.01 6 2.02 6 1 C4.35 1.33 2.7 1.66 1 2 C0.67 1.34 0.34 0.68 0 0 Z " fill="#C9DCE8" transform="translate(184,96)"/>
<path d="M0 0 C0.99 0.495 0.99 0.495 2 1 C2.99 0.67 3.98 0.34 5 0 C4.39816251 2.02045442 3.72693904 4.02111039 3 6 C2.01 6.495 2.01 6.495 1 7 C0.67 4.69 0.34 2.38 0 0 Z " fill="#193B66" transform="translate(122,68)"/>
<path d="M0 0 C1.98 0.66 3.96 1.32 6 2 C5.01 3.485 5.01 3.485 4 5 C3.01 5 2.02 5 1 5 C0.67 5.66 0.34 6.32 0 7 C0 4.69 0 2.38 0 0 Z " fill="#204679" transform="translate(123,64)"/>
<path d="M0 0 C2.31 0 4.62 0 7 0 C7 0.66 7 1.32 7 2 C5.68 2 4.36 2 3 2 C2.67 2.99 2.34 3.98 2 5 C2 4.01 2 3.02 2 2 C1.01 2.33 0.02 2.66 -1 3 C-0.67 2.01 -0.34 1.02 0 0 Z " fill="#133C6F" transform="translate(138,58)"/>
<path d="M0 0 C1.31223496 3.93670488 0.24296256 6.12488144 -1 10 C-1.33 10 -1.66 10 -2 10 C-2.1953125 3.9453125 -2.1953125 3.9453125 -2 2 C-1.34 1.34 -0.68 0.68 0 0 Z " fill="#F4FEFD" transform="translate(153,50)"/>
<path d="M0 0 C0.33 0 0.66 0 1 0 C1.36923077 5.53846154 1.36923077 5.53846154 -0.5 7.875 C-1.2425 8.431875 -1.2425 8.431875 -2 9 C-2.33 8.34 -2.66 7.68 -3 7 C-2.06421005 4.64018187 -1.06652192 2.30368736 0 0 Z " fill="#F2FBFE" transform="translate(119,29)"/>
<path d="M0 0 C2.31 0.33 4.62 0.66 7 1 C5.75 2.5 5.75 2.5 4 4 C2.68 4 1.36 4 0 4 C0 2.68 0 1.36 0 0 Z " fill="#CADCED" transform="translate(178,111)"/>
<path d="M0 0 C0.33 0 0.66 0 1 0 C1 2.31 1 4.62 1 7 C-0.65 7.33 -2.3 7.66 -4 8 C-2.25 2.25 -2.25 2.25 0 0 Z " fill="#385173" transform="translate(139,107)"/>
<path d="M0 0 C2 3 2 3 2 5 C0.35 5 -1.3 5 -3 5 C-2.625 3.0625 -2.625 3.0625 -2 1 C-1.34 0.67 -0.68 0.34 0 0 Z " fill="#183D71" transform="translate(130,107)"/>
<path d="M0 0 C1.32 0 2.64 0 4 0 C4 0.66 4 1.32 4 2 C2.35 2.33 0.7 2.66 -1 3 C-0.67 4.32 -0.34 5.64 0 7 C-0.66 7 -1.32 7 -2 7 C-2.125 4.625 -2.125 4.625 -2 2 C-1.34 1.34 -0.68 0.68 0 0 Z " fill="#32466C" transform="translate(248,104)"/>
<path d="M0 0 C1.2065625 0.0309375 1.2065625 0.0309375 2.4375 0.0625 C2.4375 3.0625 2.4375 3.0625 0.4375 6.0625 C0.1075 5.0725 -0.2225 4.0825 -0.5625 3.0625 C-1.5525 2.4025 -2.5425 1.7425 -3.5625 1.0625 C-2.5625 0.0625 -2.5625 0.0625 0 0 Z " fill="#E2F8FB" transform="translate(75.5625,100.9375)"/>
<path d="M0 0 C0.66 0.99 1.32 1.98 2 3 C1.34 4.32 0.68 5.64 0 7 C-0.99 6.67 -1.98 6.34 -3 6 C-1.125 1.125 -1.125 1.125 0 0 Z " fill="#0D3B7C" transform="translate(53,96)"/>
<path d="M0 0 C0.99 0.33 1.98 0.66 3 1 C2.34 3.64 1.68 6.28 1 9 C-0.32 8.34 -1.64 7.68 -3 7 C-2.34 6.67 -1.68 6.34 -1 6 C-0.34227572 2.97065509 -0.34227572 2.97065509 0 0 Z " fill="#224A7F" transform="translate(54,96)"/>
<path d="M0 0 C0.33 0.66 0.66 1.32 1 2 C3.02463255 2.65213292 3.02463255 2.65213292 5 3 C4.34 3.66 3.68 4.32 3 5 C1.68 5 0.36 5 -1 5 C-0.67 3.35 -0.34 1.7 0 0 Z " fill="#1B3E60" transform="translate(127,96)"/>
<path d="M0 0 C0.33 1.32 0.66 2.64 1 4 C-0.32 4.99 -1.64 5.98 -3 7 C-3.1875 4.625 -3.1875 4.625 -3 2 C-2.01 1.34 -1.02 0.68 0 0 Z " fill="#E6F8F7" transform="translate(109,31)"/>
<path d="M0 0 C1.65 0 3.3 0 5 0 C5 0.99 5 1.98 5 3 C3.02 3 1.04 3 -1 3 C-0.67 2.01 -0.34 1.02 0 0 Z " fill="#4B536F" transform="translate(199,104)"/>
<path d="M0 0 C0.99 0 1.98 0 3 0 C3 1.65 3 3.3 3 5 C2.34 5 1.68 5 1 5 C0.67 5.99 0.34 6.98 0 8 C0 5.36 0 2.72 0 0 Z " fill="#F8FDFE" transform="translate(93,104)"/>
<path d="M0 0 C3.68754757 0.49831724 5.60490662 1.10067643 8 4 C6.35 4 4.7 4 3 4 C3 3.34 3 2.68 3 2 C2.01 2 1.02 2 0 2 C0 1.34 0 0.68 0 0 Z " fill="#1A3B67" transform="translate(133,31)"/>
</svg>
