<svg width="216" height="215" viewBox="0 0 216 215" fill="none" xmlns="http://www.w3.org/2000/svg">
<g filter="url(#filter0_di_4602_485)">
<rect x="11.8008" y="10" width="192.26" height="192.26" rx="5" fill="url(#paint0_linear_4602_485)"/>
</g>
<g filter="url(#filter1_di_4602_485)">
<rect x="22.5654" y="20.7653" width="170.73" height="170.73" rx="5" fill="url(#paint1_linear_4602_485)"/>
</g>
<g clip-path="url(#clip0_4602_485)">
<g filter="url(#filter2_i_4602_485)">
<path d="M40.8202 121.502H42.5851L50.2427 139.617L57.9145 121.502H59.6652L50.9116 142.075H49.5737L40.8202 121.502ZM40.2793 121.502H41.8307L42.0158 133.089V142.075H40.2793V121.502ZM58.6831 121.502H60.2345V142.075H58.4838V133.089L58.6831 121.502ZM77.4854 140.592V142.075H66.7392V140.592H77.4854ZM67.2516 121.502V142.075H65.5009V121.502H67.2516ZM92.6012 137.017C92.6012 136.452 92.5064 135.948 92.3166 135.505C92.1268 135.062 91.8137 134.667 91.3772 134.318C90.9502 133.96 90.3713 133.63 89.6407 133.329C88.9196 133.018 88.0182 132.712 86.9364 132.41C85.9021 132.118 84.9674 131.798 84.1324 131.45C83.2974 131.101 82.581 130.701 81.9831 130.249C81.3948 129.796 80.9442 129.269 80.631 128.666C80.3179 128.054 80.1613 127.342 80.1613 126.532C80.1613 125.741 80.3321 125.02 80.6737 124.37C81.0153 123.72 81.4945 123.16 82.1113 122.689C82.7375 122.218 83.473 121.855 84.3174 121.601C85.1714 121.347 86.1061 121.219 87.1214 121.219C88.5732 121.219 89.8257 121.493 90.879 122.039C91.9418 122.585 92.7626 123.325 93.3414 124.257C93.9297 125.181 94.2239 126.217 94.2239 127.366H92.4732C92.4732 126.471 92.2597 125.675 91.8326 124.978C91.4152 124.271 90.8079 123.72 90.0108 123.325C89.2232 122.92 88.2601 122.717 87.1214 122.717C85.9828 122.717 85.0244 122.891 84.2462 123.24C83.4776 123.579 82.8941 124.036 82.4955 124.611C82.1065 125.176 81.912 125.807 81.912 126.504C81.912 126.994 82.0069 127.446 82.1966 127.861C82.3865 128.266 82.6948 128.647 83.1218 129.005C83.5583 129.354 84.1324 129.683 84.8441 129.994C85.5558 130.296 86.4335 130.583 87.4773 130.856C88.578 131.158 89.5553 131.492 90.4093 131.859C91.2633 132.227 91.9845 132.651 92.5728 133.131C93.1611 133.602 93.6071 134.153 93.9108 134.784C94.2144 135.415 94.3662 136.15 94.3662 136.989C94.3662 137.827 94.1859 138.581 93.8254 139.249C93.4742 139.909 92.9761 140.469 92.3308 140.931C91.6951 141.392 90.9407 141.746 90.0677 141.991C89.2042 142.236 88.2601 142.358 87.2353 142.358C86.3148 142.358 85.3992 142.24 84.4883 142.005C83.5773 141.769 82.7423 141.407 81.9831 140.917C81.2335 140.417 80.631 139.777 80.1755 138.995C79.7296 138.213 79.5065 137.281 79.5065 136.197H81.243C81.243 137.064 81.4186 137.794 81.7696 138.387C82.1208 138.981 82.5857 139.461 83.1645 139.829C83.7528 140.196 84.3981 140.465 85.1002 140.634C85.8119 140.794 86.5236 140.874 87.2353 140.874C88.3265 140.874 89.2706 140.714 90.0677 140.394C90.8743 140.074 91.4958 139.626 91.9323 139.052C92.3783 138.467 92.6012 137.789 92.6012 137.017ZM96.8144 134.671V134.205C96.8144 133.093 96.9757 132.067 97.2983 131.125C97.621 130.183 98.0812 129.368 98.6789 128.68C99.2862 127.992 100.012 127.46 100.857 127.083C101.701 126.697 102.641 126.504 103.675 126.504C104.719 126.504 105.663 126.697 106.507 127.083C107.352 127.46 108.078 127.992 108.685 128.68C109.292 129.368 109.757 130.183 110.08 131.125C110.403 132.067 110.564 133.093 110.564 134.205V134.671C110.564 135.783 110.403 136.81 110.08 137.752C109.757 138.684 109.292 139.494 108.685 140.182C108.087 140.87 107.366 141.407 106.522 141.793C105.677 142.17 104.738 142.358 103.703 142.358C102.66 142.358 101.715 142.17 100.871 141.793C100.026 141.407 99.3004 140.87 98.6931 140.182C98.0859 139.494 97.621 138.684 97.2983 137.752C96.9757 136.81 96.8144 135.783 96.8144 134.671ZM98.5082 134.205V134.671C98.5082 135.51 98.622 136.306 98.8498 137.059C99.0775 137.803 99.4096 138.467 99.8461 139.052C100.283 139.626 100.823 140.078 101.469 140.408C102.114 140.738 102.859 140.903 103.703 140.903C104.538 140.903 105.274 140.738 105.91 140.408C106.555 140.078 107.096 139.626 107.532 139.052C107.969 138.467 108.296 137.803 108.514 137.059C108.742 136.306 108.856 135.51 108.856 134.671V134.205C108.856 133.376 108.742 132.589 108.514 131.845C108.296 131.101 107.964 130.437 107.518 129.853C107.081 129.269 106.541 128.807 105.895 128.468C105.25 128.129 104.51 127.959 103.675 127.959C102.84 127.959 102.1 128.129 101.454 128.468C100.819 128.807 100.278 129.269 99.8319 129.853C99.3953 130.437 99.0633 131.101 98.8355 131.845C98.6173 132.589 98.5082 133.376 98.5082 134.205ZM127.402 135.66H129.152C129.01 137.045 128.626 138.241 128 139.249C127.373 140.248 126.519 141.016 125.438 141.553C124.356 142.09 123.051 142.358 121.524 142.358C120.347 142.358 119.279 142.137 118.321 141.694C117.372 141.251 116.556 140.625 115.873 139.815C115.19 138.995 114.663 138.015 114.293 136.876C113.923 135.736 113.738 134.469 113.738 133.074V130.503C113.738 129.109 113.923 127.846 114.293 126.716C114.663 125.576 115.194 124.596 115.887 123.777C116.58 122.957 117.41 122.326 118.378 121.883C119.346 121.441 120.437 121.219 121.652 121.219C123.122 121.219 124.394 121.488 125.466 122.025C126.538 122.552 127.383 123.315 128 124.314C128.626 125.312 129.01 126.518 129.152 127.931H127.402C127.269 126.82 126.975 125.878 126.519 125.105C126.064 124.333 125.433 123.744 124.626 123.339C123.829 122.924 122.838 122.717 121.652 122.717C120.684 122.717 119.82 122.901 119.061 123.268C118.302 123.636 117.657 124.163 117.125 124.851C116.594 125.529 116.186 126.344 115.901 127.295C115.626 128.247 115.489 129.307 115.489 130.475V133.074C115.489 134.205 115.621 135.246 115.887 136.197C116.153 137.149 116.542 137.973 117.054 138.67C117.576 139.367 118.212 139.909 118.961 140.295C119.711 140.681 120.565 140.874 121.524 140.874C122.748 140.874 123.768 140.681 124.584 140.295C125.409 139.899 126.05 139.315 126.505 138.543C126.961 137.77 127.26 136.81 127.402 135.66ZM40.8202 155.702H42.5851L50.2427 173.817L57.9145 155.702H59.6652L50.9116 176.275H49.5737L40.8202 155.702ZM40.2793 155.702H41.8307L42.0158 167.289V176.275H40.2793V155.702ZM58.6831 155.702H60.2345V176.275H58.4838V167.289L58.6831 155.702ZM64.1629 168.871V168.405C64.1629 167.293 64.3242 166.267 64.6469 165.325C64.9695 164.383 65.4297 163.568 66.0275 162.88C66.6348 162.192 67.3607 161.66 68.2052 161.283C69.0497 160.897 69.9891 160.704 71.0234 160.704C72.0672 160.704 73.0114 160.897 73.8558 161.283C74.7004 161.66 75.4263 162.192 76.0336 162.88C76.6409 163.568 77.1058 164.383 77.4285 165.325C77.7511 166.267 77.9124 167.293 77.9124 168.405V168.871C77.9124 169.983 77.7511 171.01 77.4285 171.952C77.1058 172.884 76.6409 173.694 76.0336 174.382C75.4358 175.07 74.7146 175.607 73.8702 175.993C73.0256 176.37 72.0862 176.558 71.0519 176.558C70.0081 176.558 69.0639 176.37 68.2195 175.993C67.3749 175.607 66.6491 175.07 66.0418 174.382C65.4345 173.694 64.9695 172.884 64.6469 171.952C64.3242 171.01 64.1629 169.983 64.1629 168.871ZM65.8567 168.405V168.871C65.8567 169.71 65.9706 170.506 66.1983 171.259C66.426 172.003 66.7582 172.667 67.1946 173.252C67.6312 173.826 68.172 174.278 68.8172 174.608C69.4625 174.938 70.2074 175.103 71.0519 175.103C71.8869 175.103 72.6224 174.938 73.2581 174.608C73.9034 174.278 74.4442 173.826 74.8807 173.252C75.3171 172.667 75.6446 172.003 75.8628 171.259C76.0905 170.506 76.2044 169.71 76.2044 168.871V168.405C76.2044 167.576 76.0905 166.789 75.8628 166.045C75.6446 165.301 75.3125 164.637 74.8665 164.053C74.43 163.469 73.8891 163.007 73.2439 162.668C72.5986 162.329 71.8585 162.159 71.0234 162.159C70.1884 162.159 69.4483 162.329 68.803 162.668C68.1673 163.007 67.6264 163.469 67.1804 164.053C66.7439 164.637 66.4118 165.301 66.1841 166.045C65.9658 166.789 65.8567 167.576 65.8567 168.405ZM91.4484 173.308V154.572H93.1564V176.275H91.5623L91.4484 173.308ZM80.7591 168.786V168.49C80.7591 167.303 80.8967 166.234 81.1719 165.282C81.447 164.321 81.8408 163.502 82.3532 162.824C82.8751 162.136 83.5014 161.613 84.232 161.255C84.9627 160.888 85.7882 160.704 86.7086 160.704C87.6101 160.704 88.4072 160.85 89.0999 161.142C89.7926 161.434 90.3856 161.853 90.879 162.4C91.382 162.946 91.7852 163.596 92.0889 164.35C92.402 165.103 92.6298 165.942 92.7721 166.865V170.637C92.6582 171.504 92.4495 172.3 92.1458 173.026C91.8422 173.741 91.4389 174.368 90.936 174.905C90.4331 175.432 89.8257 175.842 89.1141 176.134C88.4119 176.417 87.6006 176.558 86.6802 176.558C85.7693 176.558 84.9485 176.37 84.2178 175.993C83.4872 175.616 82.8657 175.084 82.3532 174.396C81.8408 173.699 81.447 172.875 81.1719 171.923C80.8967 170.972 80.7591 169.926 80.7591 168.786ZM82.4671 168.49V168.786C82.4671 169.681 82.5572 170.51 82.7375 171.273C82.9178 172.036 83.193 172.7 83.5631 173.266C83.9332 173.831 84.4028 174.274 84.9721 174.594C85.5415 174.914 86.2152 175.074 86.9933 175.074C87.9707 175.074 88.7915 174.891 89.4557 174.523C90.12 174.146 90.6513 173.652 91.0498 173.04C91.4484 172.418 91.7378 171.74 91.9181 171.005V166.61C91.8042 166.111 91.6381 165.602 91.4199 165.084C91.2017 164.566 90.9028 164.091 90.5232 163.657C90.1532 163.215 89.6786 162.861 89.0999 162.597C88.5305 162.324 87.8379 162.188 87.0218 162.188C86.2342 162.188 85.5558 162.348 84.9864 162.668C84.4171 162.988 83.9426 163.436 83.5631 164.01C83.193 164.576 82.9178 165.24 82.7375 166.003C82.5572 166.766 82.4671 167.595 82.4671 168.49ZM107.005 173.534V165.65C107.005 164.924 106.854 164.298 106.55 163.77C106.246 163.243 105.8 162.838 105.212 162.555C104.624 162.272 103.898 162.131 103.034 162.131C102.237 162.131 101.526 162.272 100.899 162.555C100.283 162.828 99.7939 163.2 99.4333 163.671C99.0823 164.133 98.9066 164.646 98.9066 165.212L97.1986 165.197C97.1986 164.623 97.341 164.067 97.6256 163.53C97.9103 162.993 98.3136 162.513 98.8355 162.089C99.3574 161.665 99.9789 161.33 100.7 161.086C101.431 160.831 102.233 160.704 103.105 160.704C104.206 160.704 105.174 160.888 106.009 161.255C106.854 161.622 107.513 162.174 107.988 162.908C108.462 163.643 108.699 164.566 108.699 165.678V173.068C108.699 173.595 108.737 174.142 108.813 174.707C108.898 175.272 109.017 175.738 109.169 176.106V176.275H107.361C107.247 175.936 107.157 175.512 107.091 175.004C107.034 174.486 107.005 173.996 107.005 173.534ZM107.404 167.373L107.432 168.673H104.088C103.215 168.673 102.432 168.754 101.739 168.914C101.056 169.064 100.477 169.29 100.003 169.592C99.5282 169.884 99.1629 170.237 98.9066 170.652C98.6599 171.066 98.5366 171.537 98.5366 172.065C98.5366 172.611 98.6742 173.11 98.9494 173.562C99.234 174.015 99.6326 174.377 100.145 174.65C100.667 174.914 101.284 175.046 101.995 175.046C102.944 175.046 103.779 174.872 104.5 174.523C105.231 174.175 105.834 173.718 106.308 173.153C106.782 172.587 107.1 171.97 107.262 171.302L108.002 172.277C107.878 172.748 107.651 173.233 107.319 173.732C106.996 174.222 106.574 174.683 106.052 175.117C105.53 175.541 104.913 175.889 104.202 176.162C103.499 176.426 102.702 176.558 101.81 176.558C100.804 176.558 99.9267 176.37 99.1771 175.993C98.437 175.616 97.8581 175.103 97.4407 174.453C97.0326 173.793 96.8286 173.049 96.8286 172.22C96.8286 171.466 96.9899 170.793 97.3125 170.199C97.6352 169.597 98.1001 169.088 98.7074 168.673C99.3242 168.25 100.064 167.929 100.928 167.713C101.801 167.486 102.778 167.373 103.86 167.373H107.404ZM115.161 154.572V176.275H113.467V154.572H115.161ZM121.709 160.987V176.275H120.015V160.987H121.709ZM119.716 156.564C119.716 156.244 119.815 155.975 120.015 155.758C120.224 155.532 120.508 155.419 120.869 155.419C121.229 155.419 121.514 155.532 121.723 155.758C121.941 155.975 122.05 156.244 122.05 156.564C122.05 156.875 121.941 157.143 121.723 157.369C121.514 157.586 121.229 157.694 120.869 157.694C120.508 157.694 120.224 157.586 120.015 157.369C119.815 157.143 119.716 156.875 119.716 156.564ZM127.032 160.987L131.188 167.161L135.359 160.987H137.38L132.156 168.476L137.593 176.275H135.601L131.203 169.818L126.818 176.275H124.826L130.263 168.476L125.039 160.987H127.032Z" fill="#413D3D"/>
</g>
<g filter="url(#filter3_i_4602_485)">
<path d="M134.441 120.092V127.573H133.458V120.092H134.441ZM136.863 120.092V120.904H131.04V120.092H136.863ZM138.615 120.092H139.583L142.052 126.191L144.515 120.092H145.489L142.424 127.573H141.668L138.615 120.092ZM138.299 120.092H139.153L139.293 124.655V127.573H138.299V120.092ZM144.945 120.092H145.799V127.573H144.805V124.655L144.945 120.092Z" fill="#413D3D"/>
</g>
</g>
<g filter="url(#filter4_i_4602_485)">
<path d="M56.2188 54.3389L58.6434 51.8917V57.3373C58.6434 57.3373 57.6685 56.0007 56.2188 54.3389Z" fill="#434343"/>
<path d="M50.6182 49.1755L58.642 51.893L56.2173 54.3401C54.6847 52.5823 52.6207 50.4618 50.6182 49.1755Z" fill="#434343"/>
<path d="M50.6182 49.1755C52.6207 50.4618 54.6847 52.5823 56.2173 54.3401L53.2729 57.3119C53.2719 54.3804 52.341 51.5273 50.6182 49.1755Z" fill="#434343"/>
<path d="M53.2725 57.3104L56.2169 54.3386C57.6666 56.0004 58.6416 57.3371 58.6416 57.3371H53.2811L53.2725 57.3104Z" fill="#434343"/>
<path d="M58.6424 39.6409V45.0865L55.9629 42.3644L58.6424 39.6409Z" fill="#434343"/>
<path d="M58.6412 45.0859H53.2822L55.9617 42.3639L58.6412 45.0859Z" fill="#434343"/>
<path d="M55.9617 42.3644L53.2822 45.0865V39.6409L55.9617 42.3644Z" fill="#434343"/>
<path d="M46.5822 51.8917L43.9027 54.6153L41.2217 51.8917H46.5822Z" fill="#434343"/>
<path d="M46.5818 51.8917V57.3373L43.9023 54.6153L46.5818 51.8917Z" fill="#434343"/>
<path d="M46.5822 57.3376H41.2217L43.9027 54.6156L46.5822 57.3376Z" fill="#434343"/>
<path d="M43.9027 54.6153L41.2217 57.3373V51.8917L43.9027 54.6153Z" fill="#434343"/>
<path d="M43.6464 42.6393L41.2217 45.0865V39.6409C41.2217 39.6409 42.1974 40.9775 43.6464 42.6393Z" fill="#434343"/>
<path d="M49.2455 47.8048L41.2217 45.0869L43.6464 42.6398C45.179 44.398 47.243 46.5181 49.2455 47.8048Z" fill="#434343"/>
<path d="M49.2457 47.8043C47.2432 46.5177 45.1791 44.3976 43.6465 42.6393L46.5909 39.6676C46.5921 42.5992 47.523 45.4524 49.2457 47.8043Z" fill="#434343"/>
<path d="M58.6412 39.6409L55.9617 42.3644L53.2822 39.6409H58.6412Z" fill="#434343"/>
<path d="M46.5908 39.6676L43.6464 42.6412C42.1974 40.9775 41.2217 39.6409 41.2217 39.6409H46.5822L46.5908 39.6676Z" fill="#434343"/>
<path d="M78.2637 44.6685V45.0741V45.6185V55.9756H80.1063V45.6185V44.6685H78.2637Z" fill="#434343"/>
<path d="M106.655 47.7889V55.971H104.813V52.5834L104.811 49.5171C104.811 49.6369 104.788 49.7556 104.743 49.8664C104.698 49.9772 104.632 50.0778 104.548 50.1626C104.465 50.2474 104.366 50.3147 104.257 50.3606C104.148 50.4065 104.031 50.4301 103.913 50.4301H102.065C100.994 50.4301 99.8359 51.018 99.8359 52.5845C99.8359 53.7008 100.691 54.6051 102.065 54.6051C103.438 54.6051 104.813 53.7004 104.813 52.5845C104.813 55.5791 103.082 56.2337 101.936 56.2337C99.7751 56.2337 97.9951 54.7088 97.9951 52.5845C97.9951 50.3325 99.837 48.9326 102.066 48.9326H103.704C104.322 48.9326 104.805 48.437 104.812 47.7889C104.812 47.8579 104.812 47.9243 104.81 47.9887L104.812 47.9792V47.7885C104.812 47.755 104.812 47.7218 104.81 47.6883C104.746 46.6483 103.849 46.2956 102.586 46.2956C101.7 46.2956 100.917 46.6696 100.594 47.4336H98.6699C99.3919 45.0791 101.311 44.6674 102.586 44.6674C104.52 44.6677 106.655 45.6342 106.655 47.7889Z" fill="#434343"/>
<path d="M78.2637 41.0001V42.9509H80.1063V42.4828V41.9757V41.0001H78.2637Z" fill="#434343"/>
<path d="M76.3384 45.4061H74.4822C74.4661 45.299 74.4503 45.1983 74.4353 45.0977C74.2432 43.782 73.523 42.8976 72.2782 42.503C71.8924 42.3794 71.4912 42.3123 71.0867 42.304C70.4285 42.2918 69.7785 42.4424 69.1488 42.7451C68.4841 43.0646 68.0053 43.5747 67.8068 44.3131C67.5996 45.0828 67.7824 45.7454 68.3719 46.2807C68.8313 46.6977 69.3814 46.9372 69.9729 47.0813C70.8582 47.297 71.7457 47.5037 72.6336 47.7088C73.6341 47.9402 74.5742 48.3035 75.3814 48.9669C77.0364 50.3256 77.2762 52.6393 75.9304 54.3145C75.2174 55.2005 74.2953 55.7685 73.2224 56.0785C71.5652 56.5565 69.9237 56.4902 68.3502 55.7616C66.7496 55.0201 65.7637 53.7506 65.423 51.9874C65.3813 51.7731 65.3689 51.5528 65.3479 51.3351C65.3453 51.275 65.3468 51.2147 65.3524 51.1548H67.2003C67.2247 51.3389 67.2378 51.5192 67.2731 51.6939C67.5159 52.8509 68.1561 53.7213 69.2126 54.2073C70.6011 54.8452 72.0065 54.8124 73.3737 54.1155C73.9951 53.7983 74.4819 53.3244 74.7138 52.6374C74.9735 51.8673 74.8297 51.1712 74.2807 50.573C73.9376 50.2019 73.506 49.927 73.0277 49.7751C72.4752 49.594 71.9086 49.4552 71.3445 49.3126C70.5519 49.1125 69.7511 48.9451 68.9634 48.7282C68.2211 48.5239 67.5444 48.1708 66.9744 47.6352C65.6279 46.3676 65.4357 44.307 66.5241 42.7721C67.096 41.967 67.8593 41.4047 68.7675 41.0585C70.4532 40.415 72.145 40.4077 73.776 41.211C75.3473 41.9834 76.1804 43.3124 76.338 45.0748C76.3481 45.1755 76.3384 45.2792 76.3384 45.4061Z" fill="#434343"/>
<path d="M96.6281 41.0001V55.9743H94.7833V41.7424C94.1701 43.1251 90.871 55.9743 90.871 55.9743H87.7224C87.7224 55.9743 84.4199 43.1267 83.8075 41.7424V55.9743H81.9648V41.0001H85.4497L89.2948 55.0483L93.141 41.0001H96.6281Z" fill="#434343"/>
<path d="M111.477 43.0392V46.4169H110.394V45.7307C110.304 46.0022 109.97 46.5004 109.249 46.5233C108.151 46.5584 107.579 45.7486 107.579 45.017C107.579 44.0876 108.34 43.5096 109.26 43.5096H109.935C110.208 43.5096 110.404 43.3491 110.392 43.1486C110.371 42.8055 110.092 42.629 109.635 42.629C109.334 42.629 109.049 42.8154 108.952 43.0438H107.868C108.068 42.0979 108.87 41.7476 109.635 41.7476C110.435 41.7506 111.477 42.1501 111.477 43.0392ZM110.394 44.2229C110.236 44.284 110.067 44.3154 109.898 44.3156H109.437C109.153 44.3156 108.712 44.4013 108.662 44.8733C108.621 45.258 108.933 45.6057 109.437 45.6057C109.916 45.6057 110.394 45.258 110.394 44.8691V44.2229Z" fill="#434343"/>
<path d="M113.275 41.8677H112.192V46.425H113.275V41.8677Z" fill="#434343"/>
<path d="M113.275 40.2227H112.192V41.3229H113.275V40.2227Z" fill="#434343"/>
<path d="M113.897 45.5759H114.576V45.7166H114.314V46.4276H114.159V45.7166H113.896L113.897 45.5759ZM115.556 45.5759V46.4276H115.399V45.8596L115.222 46.4276H115.058L114.88 45.8596V46.4276H114.723V45.5775H114.926L115.139 46.2671L115.351 45.5775L115.556 45.5759Z" fill="#434343"/>
</g>
<circle cx="19.6327" cy="17.8913" r="2.87395" fill="url(#paint2_radial_4602_485)"/>
<circle cx="19.6327" cy="194.369" r="2.87395" fill="url(#paint3_radial_4602_485)"/>
<circle cx="196.17" cy="17.8913" r="2.87395" fill="url(#paint4_radial_4602_485)"/>
<circle cx="196.17" cy="194.369" r="2.87395" fill="url(#paint5_radial_4602_485)"/>
<defs>
<filter id="filter0_di_4602_485" x="0.800781" y="0" width="214.261" height="214.26" filterUnits="userSpaceOnUse" color-interpolation-filters="sRGB">
<feFlood flood-opacity="0" result="BackgroundImageFix"/>
<feColorMatrix in="SourceAlpha" type="matrix" values="0 0 0 0 0 0 0 0 0 0 0 0 0 0 0 0 0 0 127 0" result="hardAlpha"/>
<feOffset dy="1"/>
<feGaussianBlur stdDeviation="5.5"/>
<feComposite in2="hardAlpha" operator="out"/>
<feColorMatrix type="matrix" values="0 0 0 0 0 0 0 0 0 0 0 0 0 0 0 0 0 0 0.15 0"/>
<feBlend mode="normal" in2="BackgroundImageFix" result="effect1_dropShadow_4602_485"/>
<feBlend mode="normal" in="SourceGraphic" in2="effect1_dropShadow_4602_485" result="shape"/>
<feColorMatrix in="SourceAlpha" type="matrix" values="0 0 0 0 0 0 0 0 0 0 0 0 0 0 0 0 0 0 127 0" result="hardAlpha"/>
<feOffset dx="3" dy="3"/>
<feGaussianBlur stdDeviation="2"/>
<feComposite in2="hardAlpha" operator="arithmetic" k2="-1" k3="1"/>
<feColorMatrix type="matrix" values="0 0 0 0 1 0 0 0 0 1 0 0 0 0 1 0 0 0 0.35 0"/>
<feBlend mode="normal" in2="shape" result="effect2_innerShadow_4602_485"/>
</filter>
<filter id="filter1_di_4602_485" x="11.5654" y="10.7653" width="192.73" height="192.73" filterUnits="userSpaceOnUse" color-interpolation-filters="sRGB">
<feFlood flood-opacity="0" result="BackgroundImageFix"/>
<feColorMatrix in="SourceAlpha" type="matrix" values="0 0 0 0 0 0 0 0 0 0 0 0 0 0 0 0 0 0 127 0" result="hardAlpha"/>
<feOffset dy="1"/>
<feGaussianBlur stdDeviation="5.5"/>
<feComposite in2="hardAlpha" operator="out"/>
<feColorMatrix type="matrix" values="0 0 0 0 0 0 0 0 0 0 0 0 0 0 0 0 0 0 0.15 0"/>
<feBlend mode="normal" in2="BackgroundImageFix" result="effect1_dropShadow_4602_485"/>
<feBlend mode="normal" in="SourceGraphic" in2="effect1_dropShadow_4602_485" result="shape"/>
<feColorMatrix in="SourceAlpha" type="matrix" values="0 0 0 0 0 0 0 0 0 0 0 0 0 0 0 0 0 0 127 0" result="hardAlpha"/>
<feOffset dx="3" dy="3"/>
<feGaussianBlur stdDeviation="2"/>
<feComposite in2="hardAlpha" operator="arithmetic" k2="-1" k3="1"/>
<feColorMatrix type="matrix" values="0 0 0 0 1 0 0 0 0 1 0 0 0 0 1 0 0 0 0.35 0"/>
<feBlend mode="normal" in2="shape" result="effect2_innerShadow_4602_485"/>
</filter>
<filter id="filter2_i_4602_485" x="40.2793" y="121.219" width="97.3135" height="56.3386" filterUnits="userSpaceOnUse" color-interpolation-filters="sRGB">
<feFlood flood-opacity="0" result="BackgroundImageFix"/>
<feBlend mode="normal" in="SourceGraphic" in2="BackgroundImageFix" result="shape"/>
<feColorMatrix in="SourceAlpha" type="matrix" values="0 0 0 0 0 0 0 0 0 0 0 0 0 0 0 0 0 0 127 0" result="hardAlpha"/>
<feOffset dy="1"/>
<feGaussianBlur stdDeviation="0.65"/>
<feComposite in2="hardAlpha" operator="arithmetic" k2="-1" k3="1"/>
<feColorMatrix type="matrix" values="0 0 0 0 0 0 0 0 0 0 0 0 0 0 0 0 0 0 0.25 0"/>
<feBlend mode="normal" in2="shape" result="effect1_innerShadow_4602_485"/>
</filter>
<filter id="filter3_i_4602_485" x="131.04" y="120.092" width="14.7588" height="8.4812" filterUnits="userSpaceOnUse" color-interpolation-filters="sRGB">
<feFlood flood-opacity="0" result="BackgroundImageFix"/>
<feBlend mode="normal" in="SourceGraphic" in2="BackgroundImageFix" result="shape"/>
<feColorMatrix in="SourceAlpha" type="matrix" values="0 0 0 0 0 0 0 0 0 0 0 0 0 0 0 0 0 0 127 0" result="hardAlpha"/>
<feOffset dy="1"/>
<feGaussianBlur stdDeviation="0.65"/>
<feComposite in2="hardAlpha" operator="arithmetic" k2="-1" k3="1"/>
<feColorMatrix type="matrix" values="0 0 0 0 0 0 0 0 0 0 0 0 0 0 0 0 0 0 0.25 0"/>
<feBlend mode="normal" in2="shape" result="effect1_innerShadow_4602_485"/>
</filter>
<filter id="filter4_i_4602_485" x="41.2217" y="39.6409" width="74.334" height="18.6968" filterUnits="userSpaceOnUse" color-interpolation-filters="sRGB">
<feFlood flood-opacity="0" result="BackgroundImageFix"/>
<feBlend mode="normal" in="SourceGraphic" in2="BackgroundImageFix" result="shape"/>
<feColorMatrix in="SourceAlpha" type="matrix" values="0 0 0 0 0 0 0 0 0 0 0 0 0 0 0 0 0 0 127 0" result="hardAlpha"/>
<feOffset dy="1"/>
<feGaussianBlur stdDeviation="0.65"/>
<feComposite in2="hardAlpha" operator="arithmetic" k2="-1" k3="1"/>
<feColorMatrix type="matrix" values="0 0 0 0 0 0 0 0 0 0 0 0 0 0 0 0 0 0 0.25 0"/>
<feBlend mode="normal" in2="shape" result="effect1_innerShadow_4602_485"/>
</filter>
<linearGradient id="paint0_linear_4602_485" x1="51.3051" y1="204.831" x2="265.603" y2="58.8491" gradientUnits="userSpaceOnUse">
<stop stop-color="#B1B1B1"/>
<stop offset="0.426666" stop-color="#939393"/>
<stop offset="0.866666" stop-color="#DCDCDC"/>
</linearGradient>
<linearGradient id="paint1_linear_4602_485" x1="126.696" y1="180.447" x2="278.133" y2="17.4531" gradientUnits="userSpaceOnUse">
<stop stop-color="#B1B1B1"/>
<stop offset="0.254245" stop-color="#ABABAB"/>
<stop offset="0.44918" stop-color="#DCDCDC"/>
<stop offset="0.763624" stop-color="#B0ACAC"/>
<stop offset="1" stop-color="#DCDCDC"/>
</linearGradient>
<radialGradient id="paint2_radial_4602_485" cx="0" cy="0" r="1" gradientUnits="userSpaceOnUse" gradientTransform="translate(18.8655 17.1917) rotate(77.8827) scale(3.65497)">
<stop stop-color="#9E9C9C"/>
<stop offset="0.326666" stop-color="#7B7B7B"/>
<stop offset="0.866666" stop-color="#464646"/>
<stop offset="1" stop-color="#464646"/>
</radialGradient>
<radialGradient id="paint3_radial_4602_485" cx="0" cy="0" r="1" gradientUnits="userSpaceOnUse" gradientTransform="translate(18.8655 193.67) rotate(77.8827) scale(3.65497)">
<stop stop-color="#9E9C9C"/>
<stop offset="0.326666" stop-color="#7B7B7B"/>
<stop offset="0.866666" stop-color="#464646"/>
<stop offset="1" stop-color="#464646"/>
</radialGradient>
<radialGradient id="paint4_radial_4602_485" cx="0" cy="0" r="1" gradientUnits="userSpaceOnUse" gradientTransform="translate(195.403 17.1917) rotate(77.8827) scale(3.65497)">
<stop stop-color="#9E9C9C"/>
<stop offset="0.326666" stop-color="#7B7B7B"/>
<stop offset="0.866666" stop-color="#464646"/>
<stop offset="1" stop-color="#464646"/>
</radialGradient>
<radialGradient id="paint5_radial_4602_485" cx="0" cy="0" r="1" gradientUnits="userSpaceOnUse" gradientTransform="translate(195.403 193.67) rotate(77.8827) scale(3.65497)">
<stop stop-color="#9E9C9C"/>
<stop offset="0.326666" stop-color="#7B7B7B"/>
<stop offset="0.866666" stop-color="#464646"/>
<stop offset="1" stop-color="#464646"/>
</radialGradient>
<clipPath id="clip0_4602_485">
<rect width="106" height="57" fill="white" transform="translate(40 120)"/>
</clipPath>
</defs>
</svg>
